<svg width="401" height="293" viewBox="0 0 401 293" fill="none" xmlns="http://www.w3.org/2000/svg">
<path d="M353.161 264.539C350.361 257.423 349.953 249.636 352.024 242.287C351.819 242.375 351.586 242.462 351.382 242.55C351.907 242.9 352.403 243.279 352.928 243.629C353.132 243.775 353.54 243.629 353.569 243.366C355.494 229.806 361.151 216.974 369.9 206.417C369.667 206.359 369.404 206.301 369.171 206.213C373.954 226.248 368.034 246.808 360.801 265.472C360.597 265.997 361.443 266.23 361.647 265.705C368.938 246.866 374.829 226.19 370.017 205.98C369.959 205.688 369.492 205.543 369.288 205.776C360.481 216.449 354.706 229.427 352.753 243.133C352.957 243.046 353.19 242.958 353.394 242.871C352.869 242.521 352.373 242.142 351.849 241.792C351.615 241.617 351.265 241.792 351.207 242.054C349.107 249.549 349.486 257.539 352.344 264.772C352.519 265.297 353.365 265.063 353.161 264.539Z" fill="white"/>
<path d="M371.356 226.363C373.194 221.901 375.497 217.673 378.21 213.648C378.005 213.706 377.801 213.765 377.597 213.794C377.947 214.056 378.326 214.319 378.676 214.552C378.88 214.698 379.172 214.581 379.289 214.406C381.826 209.828 384.8 205.512 388.212 201.546C387.979 201.517 387.746 201.487 387.512 201.458C392.003 209.186 388.591 218.722 385.85 226.451C382.876 234.937 379.172 243.161 374.564 250.86C371.94 255.234 369.023 259.433 365.815 263.37C365.465 263.808 366.078 264.42 366.428 263.983C372.319 256.751 377.16 248.789 381.097 240.361C383.051 236.191 384.771 231.933 386.346 227.617C387.892 223.33 389.408 218.956 390.108 214.436C390.837 209.828 390.604 205.104 388.241 200.992C388.096 200.758 387.746 200.7 387.542 200.904C384.1 204.958 381.067 209.303 378.472 213.94C378.676 213.881 378.88 213.823 379.084 213.794C378.734 213.532 378.355 213.269 378.005 213.036C377.801 212.89 377.539 213.007 377.393 213.182C374.652 217.235 372.348 221.551 370.452 226.101C370.306 226.655 371.152 226.888 371.356 226.363Z" fill="white"/>
<path d="M368.707 206.707C364.857 224.526 358.996 241.878 356.225 259.9C356.138 260.454 356.983 260.687 357.071 260.133C359.841 242.082 365.703 224.73 369.552 206.941C369.669 206.387 368.823 206.153 368.707 206.707Z" fill="white"/>
<path d="M387.746 201.664C384.742 219.979 375.819 236.455 367.011 252.524C366.749 253.02 367.507 253.457 367.77 252.962C376.606 236.805 385.559 220.27 388.592 201.898C388.679 201.344 387.834 201.11 387.746 201.664Z" fill="white"/>
<path d="M356.747 228.143C358.818 231.351 360.189 234.909 360.772 238.7C360.859 239.254 361.705 239.02 361.618 238.466C361.034 234.617 359.635 230.972 357.506 227.705C357.185 227.239 356.427 227.676 356.747 228.143Z" fill="white"/>
<path d="M362.871 233.445C365.816 228.925 368.762 224.376 371.707 219.856C372.028 219.389 371.27 218.952 370.949 219.418C368.004 223.938 365.058 228.488 362.113 233.008C361.792 233.475 362.55 233.912 362.871 233.445Z" fill="white"/>
<path d="M374.595 218.08C374.478 224.146 374.915 230.183 375.849 236.161C375.936 236.715 376.782 236.482 376.694 235.928C375.761 230.008 375.353 224.058 375.47 218.08C375.499 217.497 374.624 217.497 374.595 218.08Z" fill="white"/>
<path d="M383.052 221.869C385.443 219.448 387.776 216.911 389.992 214.316C390.342 213.878 389.73 213.266 389.38 213.703C387.164 216.299 384.86 218.807 382.439 221.256C382.031 221.665 382.643 222.277 383.052 221.869Z" fill="white"/>
<path d="M37.1257 249.401C30.7682 244.881 26.3647 238.028 24.8774 230.358C24.7899 230.533 24.6732 230.708 24.5857 230.883C25.2856 230.679 25.9272 230.854 26.4521 231.379C26.8313 231.758 27.327 231.291 27.152 230.854C23.2734 222.105 21.232 212.627 21.2029 203.062C21.0862 203.207 20.9987 203.353 20.8821 203.47C21.1737 203.616 21.4945 203.791 21.7861 203.936C21.9903 204.286 22.6318 204.17 22.6027 203.703C22.3985 201.166 22.1944 198.629 21.9903 196.092C21.8153 193.846 21.5528 191.484 23.011 189.588C22.8068 189.647 22.6027 189.705 22.3985 189.734C24.4399 191.192 25.6356 193.555 26.8313 195.683C27.9978 197.783 29.1059 199.941 30.1558 202.099C32.343 206.649 34.2094 211.344 35.755 216.156C38.8171 225.546 40.6543 235.286 41.2668 245.143C41.2959 245.697 42.1708 245.697 42.1416 245.143C41.5001 234.878 39.5462 224.7 36.2799 214.931C34.676 210.148 32.7804 205.482 30.5641 200.962C29.4267 198.629 28.2311 196.354 26.9479 194.109C25.8397 192.155 24.7024 190.288 22.836 188.947C22.6318 188.801 22.3694 188.918 22.2236 189.093C20.9112 190.813 20.8821 192.971 20.9987 195.071C21.2029 197.929 21.4653 200.787 21.6986 203.674C21.9611 203.587 22.2527 203.528 22.5152 203.441C22.0777 202.683 21.4653 202.449 20.6196 202.566C20.4446 202.595 20.2988 202.799 20.2988 202.974C20.3572 212.714 22.4277 222.309 26.3647 231.204C26.598 231.029 26.8313 230.854 27.0646 230.679C26.3063 229.891 25.3731 229.658 24.3524 229.95C24.1191 230.008 24.0025 230.241 24.0608 230.474C25.6064 238.378 30.1558 245.377 36.6882 250.043C37.1548 250.48 37.5923 249.722 37.1257 249.401Z" fill="white"/>
<path d="M34.5011 209.506C34.2387 207.844 34.0345 206.182 33.9471 204.52C33.8596 202.974 33.4221 200.67 34.5886 199.445C35.2594 198.775 35.5802 198.454 35.726 197.433C35.9301 195.8 35.9301 194.138 36.1051 192.505C36.455 189.093 36.9508 185.739 37.6507 182.385C37.7674 181.831 37.8257 180.781 38.1173 180.285C38.8172 179.148 39.8962 180.344 40.4503 180.898C41.4419 181.889 42.2292 183.056 42.9 184.281C45.6996 189.413 46.4578 195.742 47.2161 201.458C48.0618 207.815 48.4117 214.231 48.2367 220.647C48.0618 227.937 47.0702 235.199 44.5623 242.081C44.3581 242.606 45.2038 242.839 45.408 242.314C50.2781 228.87 49.8407 213.618 47.8285 199.679C46.9828 193.759 46.0787 187.022 42.4917 182.006C41.7043 180.927 39.313 177.486 37.7674 179.031C36.9508 179.819 36.8925 181.656 36.6883 182.677C36.3092 184.602 35.9593 186.526 35.6968 188.48C35.4344 190.376 35.2302 192.271 35.0552 194.167C34.9677 195.188 35.0552 196.354 34.8219 197.346C34.5886 198.308 33.8887 198.6 33.4221 199.358C32.6639 200.524 32.9555 202.362 33.0139 203.674C33.1013 205.686 33.3346 207.698 33.6554 209.711C33.7429 210.294 34.5886 210.061 34.5011 209.506Z" fill="white"/>
<path d="M38.0285 179.672C42.7237 197.869 44.036 216.796 41.9072 235.46C41.8488 236.014 42.7237 236.014 42.7821 235.46C44.9109 216.708 43.5694 197.694 38.8743 179.438C38.7284 178.914 37.8827 179.147 38.0285 179.672Z" fill="white"/>
<path d="M21.7825 189.558C28.6357 207.085 33.9725 225.166 37.7928 243.597C37.9094 244.151 38.7551 243.918 38.6385 243.364C34.8473 224.933 29.4814 206.852 22.6282 189.325C22.3949 188.8 21.5492 189.034 21.7825 189.558Z" fill="white"/>
<path d="M21.9301 216.389C26.7128 217.731 30.6789 220.88 33.0994 225.225C33.3619 225.721 34.1201 225.284 33.8576 224.788C31.3205 220.268 27.1211 216.972 22.1634 215.573C21.6093 215.398 21.376 216.243 21.9301 216.389Z" fill="white"/>
<path d="M31.615 205.074C31.0901 209.594 31.0026 214.114 31.3525 218.634C31.3817 219.188 32.2566 219.188 32.2274 218.634C31.8775 214.114 31.965 209.594 32.4899 205.074C32.5482 204.52 31.6733 204.52 31.615 205.074Z" fill="white"/>
<path d="M34.7045 199.242C38.6706 204.404 41.441 210.353 42.8408 216.711C42.9575 217.265 43.8032 217.032 43.6866 216.478C42.2576 210.062 39.4871 204.025 35.4627 198.805C35.1419 198.338 34.3837 198.776 34.7045 199.242Z" fill="white"/>
<path d="M44.8537 188.743C43.3956 192.126 42.3749 195.625 41.8208 199.27C41.7333 199.825 42.579 200.058 42.6665 199.504C43.1914 195.946 44.183 192.505 45.6119 189.18C45.8452 188.684 45.087 188.218 44.8537 188.743Z" fill="white"/>
<path d="M6.56044 270.253C22.3666 264.683 39.2226 269.115 55.0871 271.944C72.0305 274.948 89.149 276.931 106.297 277.835C116.008 278.36 125.719 278.535 135.459 278.36C136.013 278.36 136.013 277.485 135.459 277.485C117.933 277.777 100.377 276.96 82.9374 275.065C74.0719 274.102 65.2357 272.848 56.4577 271.303C48.613 269.932 40.7974 268.24 32.8943 267.307C23.9997 266.287 14.8718 266.403 6.32714 269.407C5.80221 269.611 6.03551 270.457 6.56044 270.253Z" fill="white"/>
<path d="M98.1627 269.524C124.322 275.94 151.414 274.249 177.952 271.799C191.6 270.545 205.219 269.058 218.896 268.329C232.544 267.599 246.163 267.833 259.782 269.174C275.617 270.749 291.278 273.636 306.85 276.902C307.404 277.019 307.638 276.173 307.084 276.057C280.021 270.37 252.695 266.2 224.991 267.191C197.87 268.154 170.982 272.615 143.831 273.111C128.579 273.403 113.269 272.324 98.4251 268.678C97.8419 268.533 97.6086 269.378 98.1627 269.524Z" fill="white"/>
<path d="M212.451 288.042C233.915 283.609 255.758 287.808 277.134 290.637C298.393 293.437 319.799 293.903 341.087 291.191C352.869 289.704 364.505 287.313 375.908 284.105C376.462 283.959 376.228 283.113 375.674 283.259C354.998 289.092 333.564 292.124 312.071 292.212C301.397 292.241 290.782 291.512 280.196 290.171C269.377 288.8 258.616 287.021 247.767 286C235.898 284.892 223.912 284.775 212.189 287.225C211.664 287.313 211.897 288.158 212.451 288.042Z" fill="white"/>
<path d="M308.718 265.705C319.625 269.758 331.348 267.367 342.284 264.742C354.386 261.855 366.431 259.464 378.883 258.764C385.795 258.385 392.735 258.443 399.647 258.88C400.201 258.91 400.201 258.035 399.647 258.006C387.632 257.218 375.588 257.685 363.66 259.405C357.711 260.28 351.82 261.505 345.988 262.934C340.184 264.334 334.352 265.821 328.403 266.55C321.841 267.367 315.192 267.163 308.951 264.83C308.426 264.684 308.193 265.53 308.718 265.705Z" fill="white"/>
<path d="M299.879 172.325C299.033 174.949 298.158 177.545 297.312 180.169C297.108 180.84 296.904 181.482 297.108 182.182C297.4 183.115 298.391 183.669 298.421 184.719C298.596 184.573 298.8 184.427 298.975 184.31C295.534 183.29 295.65 188.772 295.767 190.697C295.971 194.517 297.196 198.192 299.237 201.4C299.529 201.866 300.287 201.429 299.995 200.962C298.537 198.688 297.517 196.18 296.992 193.526C296.7 192.097 295.679 184.223 298.741 185.127C299.004 185.215 299.296 184.981 299.296 184.719C299.296 184.019 299.033 183.552 298.625 182.998C297.867 181.919 297.925 181.132 298.333 179.878C299.121 177.428 299.937 175.008 300.725 172.558C300.899 172.004 300.054 171.771 299.879 172.325Z" fill="white"/>
<path d="M300.169 172.442C303.465 175.796 304.281 181.249 304.544 185.74C304.835 190.581 304.136 195.422 302.59 200.001C302.415 200.526 303.261 200.759 303.436 200.234C305.127 195.247 305.827 189.94 305.36 184.69C304.981 180.229 304.048 175.125 300.811 171.801C300.374 171.422 299.761 172.034 300.169 172.442Z" fill="white"/>
<path d="M305.394 185.418C305.977 181.51 306.969 177.719 308.339 174.015C308.135 174.103 307.902 174.19 307.698 174.278C308.31 174.686 308.923 175.124 309.535 175.532C309.827 175.736 310.177 175.474 310.206 175.153C310.468 168.65 315.543 163.663 316.913 157.48C316.622 157.48 316.359 157.48 316.068 157.48C318.401 171.537 315.455 186.176 307.873 198.25C307.581 198.716 308.339 199.154 308.631 198.687C316.33 186.41 319.275 171.537 316.913 157.247C316.855 156.809 316.155 156.839 316.068 157.247C314.668 163.546 309.593 168.533 309.331 175.153C309.564 175.036 309.768 174.89 310.002 174.774C309.389 174.365 308.777 173.928 308.164 173.52C307.902 173.345 307.61 173.549 307.523 173.782C306.152 177.486 305.161 181.277 304.577 185.185C304.461 185.739 305.306 185.972 305.394 185.418Z" fill="white"/>
<path d="M315.978 159.288C315.045 170.049 312.129 180.547 307.375 190.229C307.142 190.725 307.871 191.163 308.134 190.667C312.946 180.81 315.92 170.195 316.853 159.288C316.882 158.705 316.008 158.734 315.978 159.288Z" fill="white"/>
<path d="M299.763 173.14C300.958 181.83 302.096 190.696 300.258 199.357C300.142 199.911 300.987 200.145 301.104 199.59C303 190.754 301.833 181.743 300.608 172.907C300.55 172.353 299.704 172.586 299.763 173.14Z" fill="white"/>
<path d="M257.392 202.363C261.883 202.014 266.403 202.334 270.778 203.413C274.481 204.317 278.156 206.184 282.034 205.601C286.03 204.988 289.383 202.334 293.495 202.189C297.461 202.043 301.369 203.413 305.277 202.276C305.831 202.13 305.598 201.284 305.044 201.43C300.961 202.597 296.849 200.993 292.737 201.372C289.004 201.722 285.884 203.967 282.268 204.696C278.097 205.513 273.956 203.238 269.932 202.363C265.791 201.459 261.562 201.197 257.363 201.547C256.838 201.518 256.838 202.393 257.392 202.363Z" fill="white"/>
<path d="M0.146667 243.246C8.19555 250.77 19.8606 242.633 29.1052 245.637C29.6301 245.812 29.8634 244.966 29.3385 244.791C24.41 243.187 19.3648 244.441 14.4072 245.2C9.77034 245.9 4.43357 246.016 0.759082 242.604C0.350806 242.254 -0.290772 242.867 0.146667 243.246Z" fill="white"/>
<path d="M347.154 253.894C299.649 256.898 249.489 258.735 196.879 258.998C143.891 259.26 93.3521 257.89 45.5254 255.352C50.2206 247.099 54.9449 238.876 59.6984 230.681C63.5187 224.061 67.3974 217.47 71.276 210.909C112.395 213.242 156.839 214.175 204.17 213.008C248.76 211.9 290.696 209.042 329.628 205.047C333.215 210.092 337.356 216.916 340.739 225.519C345.113 236.688 346.63 246.691 347.154 253.894Z" fill="white" stroke="#161616" stroke-width="3"/>
<path d="M67.5425 249.403C84.1069 251.182 100.788 251.736 117.469 251.065C118.023 251.036 118.023 250.161 117.469 250.19C100.817 250.861 84.1361 250.307 67.5425 248.528C66.9884 248.47 66.9884 249.345 67.5425 249.403Z" fill="#161616"/>
<path d="M97.0269 245.206C105.105 245.526 113.212 245.322 121.29 245.322C129.485 245.293 137.65 245.293 145.845 245.264C146.399 245.264 146.399 244.389 145.845 244.389C137.65 244.418 129.485 244.418 121.29 244.447C113.212 244.477 105.105 244.652 97.0269 244.331C96.4728 244.302 96.4728 245.177 97.0269 245.206Z" fill="#161616"/>
<path d="M204.841 243.075C229.542 241.5 254.214 239.633 278.885 237.475C279.439 237.417 279.439 236.542 278.885 236.6C254.243 238.758 229.542 240.625 204.841 242.2C204.287 242.229 204.287 243.104 204.841 243.075Z" fill="#161616"/>
<path d="M269.232 228.085C288.363 227.385 307.464 226.19 326.537 224.411C327.091 224.353 327.091 223.478 326.537 223.536C307.464 225.286 288.363 226.511 269.232 227.21C268.678 227.21 268.678 228.085 269.232 228.085Z" fill="#161616"/>
<path d="M285.97 246.809C302.039 246.109 318.107 245.409 334.176 244.68C334.73 244.651 334.73 243.776 334.176 243.805C318.107 244.505 302.039 245.205 285.97 245.934C285.416 245.963 285.416 246.838 285.97 246.809Z" fill="#161616"/>
<path d="M73.959 209.86C74.6881 211.23 75.4171 212.601 76.1753 214.001C76.8461 214.438 79.1208 215.78 81.9787 215.255C83.1744 215.051 84.1076 214.584 84.72 214.205C85.5365 212.776 86.3531 211.347 87.1697 209.918C85.5657 209.422 83.2035 208.839 80.2873 208.868C77.6335 208.897 75.4754 209.393 73.959 209.86Z" fill="white" stroke="#161616" stroke-width="3"/>
<path d="M74.4553 210.355C77.08 211.988 80.842 211.609 83.7874 211.434C84.3415 211.405 84.3415 210.53 83.7874 210.559C81.0169 210.705 77.3716 211.142 74.8928 209.597C74.4262 209.305 73.9887 210.063 74.4553 210.355Z" fill="#161616"/>
<path d="M67.6585 190.7C70.1373 197.115 72.6161 203.531 75.0658 209.947C75.2699 210.472 76.1157 210.239 75.9115 209.714C73.4327 203.298 70.9539 196.882 68.5042 190.466C68.3001 189.941 67.4544 190.146 67.6585 190.7Z" fill="#161616"/>
<path d="M71.3938 190.847C72.677 197.409 74.1934 203.941 75.914 210.415C76.0598 210.969 76.9056 210.736 76.7598 210.182C75.01 203.708 73.4935 197.175 72.2395 190.614C72.1229 190.06 71.2772 190.293 71.3938 190.847Z" fill="#161616"/>
<path d="M67.8357 187.433C67.3982 186.033 68.5647 184.721 68.2439 183.263C67.8648 181.717 66.3484 181.076 66.5233 179.297C66.64 178.072 67.2524 176.905 67.0483 175.651C66.9025 174.864 66.4067 174.397 66.0567 173.698C65.6485 172.823 65.8234 172.006 66.0567 171.102C66.29 170.081 66.6691 168.973 66.2609 167.923C66.0567 167.369 65.6485 167.107 65.2985 166.669C64.482 165.707 64.5986 164.715 64.8027 163.549C65.4443 159.933 65.4735 156.462 64.5403 152.875C64.3945 152.321 63.5487 152.555 63.6946 153.109C64.2195 155.15 64.5111 157.221 64.4528 159.32C64.3945 161.099 63.9279 162.762 63.782 164.511C63.6654 165.94 64.132 166.553 65.0069 167.573C66.1442 168.944 65.1819 170.519 64.9777 172.064C64.9194 172.56 64.9194 173.085 65.0652 173.581C65.2985 174.397 66.0276 174.952 66.1734 175.826C66.4067 177.226 65.5318 178.597 65.6193 179.997C65.7359 181.513 67.3107 182.301 67.4274 183.759C67.544 185.129 66.5525 186.237 66.9899 187.666C67.1649 188.191 68.0106 187.958 67.8357 187.433Z" fill="white"/>
<path d="M72.064 186.762C71.1599 185.916 72.2973 185.041 71.9765 184.049C71.8015 183.495 71.2182 183.087 71.1891 182.475C71.1599 181.921 71.539 181.308 71.6265 180.754C71.7723 179.704 71.2182 179.208 70.9558 178.246C70.6058 176.934 71.3932 175.476 71.6265 174.192C71.8015 173.201 71.714 172.355 71.3641 171.422C71.0724 170.664 70.7808 170.022 70.8391 169.206C70.8974 168.535 71.1891 167.922 71.3349 167.281C71.9181 164.948 69.8476 162.469 70.8391 160.311C71.0724 159.815 70.3142 159.349 70.0809 159.874C68.9144 162.352 71.0724 164.715 70.4308 167.281C70.1101 168.564 69.7309 169.497 70.1684 170.81C70.4308 171.539 70.81 172.239 70.8391 173.055C70.8974 173.872 70.6058 174.659 70.4017 175.417C70.1392 176.409 69.8476 177.459 70.1101 178.479C70.3434 179.325 70.8974 179.967 70.6933 180.9C70.5767 181.366 70.3725 181.804 70.3434 182.3C70.3142 182.766 70.3725 183.116 70.6058 183.524C70.7225 183.729 71.0724 184.049 71.1016 184.195C71.1599 184.429 70.9558 184.895 70.8974 185.099C70.6933 186.003 70.7516 186.674 71.4515 187.345C71.8598 187.753 72.4722 187.141 72.064 186.762Z" fill="white"/>
<path d="M32.7473 54.8575C38.5215 56.6656 44.6456 56.549 50.624 56.4323C56.3398 56.3157 62.0265 55.9365 67.6841 55.3533C78.97 54.1576 90.1393 52.0287 101.104 49.0833C123.297 43.1341 144.557 33.9188 164.417 22.4287C175.673 15.9254 186.463 8.69308 196.816 0.848331C197.254 0.49838 196.816 -0.259849 196.379 0.0901027C178.269 13.8257 158.73 25.7241 137.966 34.9978C117.144 44.3006 95.0386 51.008 72.3793 53.9243C66.1676 54.7409 59.8977 55.2658 53.6277 55.4699C46.8036 55.7032 39.6005 56.0823 33.0097 54.0118C32.4556 53.866 32.2223 54.6825 32.7473 54.8575Z" fill="white"/>
<path d="M183.781 10.179C191.567 16.9155 200.753 21.7274 210.202 25.7227C220.35 30.0096 230.849 33.5674 241.523 36.3087C262.636 41.7913 284.537 44.2409 306.322 43.5702C318.745 43.1911 331.723 42.3454 343.592 38.3792C344.117 38.2043 343.883 37.3585 343.358 37.5335C332.802 41.0914 321.399 41.9954 310.346 42.5495C299.644 43.0744 288.912 42.8411 278.267 41.8496C256.716 39.8665 235.457 34.8214 215.334 26.86C204.34 22.5148 193.463 17.353 184.451 9.56656C183.956 9.18744 183.343 9.79986 183.781 10.179Z" fill="white"/>
<path d="M66.8382 25.0832C77.5408 31.2657 90.2849 32.7822 102.358 34.0653C114.782 35.3776 127.321 35.7276 139.832 35.1735C164.504 34.0653 189.059 29.3993 212.389 21.3213C225.541 16.7719 238.285 11.1435 250.504 4.52358C251 4.26112 250.563 3.50289 250.067 3.76535C228.574 15.4596 205.361 23.9459 181.418 29.0202C157.417 34.0945 132.658 35.7276 108.191 33.7445C101.25 33.1904 94.2802 32.4031 87.427 31.1491C80.3988 29.8659 73.4872 27.9412 67.2756 24.3542C66.809 24.0625 66.3716 24.8208 66.8382 25.0832Z" fill="white"/>
<path d="M102.766 44.0097C102.766 47.6259 102.766 51.2712 102.766 54.8874C102.766 55.4415 103.641 55.4415 103.641 54.8874C103.641 51.2712 103.641 47.6259 103.641 44.0097C103.641 43.4265 102.766 43.4265 102.766 44.0097Z" fill="#161616"/>
<path d="M103.031 62.0594C103.031 66.3171 103.031 70.5457 103.031 74.8035C103.031 75.3575 103.906 75.3575 103.906 74.8035C103.906 70.5457 103.906 66.3171 103.906 62.0594C103.906 61.5053 103.031 61.4761 103.031 62.0594Z" fill="#161616"/>
<path d="M117.9 74.0175C117.9 79.3251 117.9 84.6327 117.9 89.9403C117.9 90.4944 118.775 90.4944 118.775 89.9403C118.775 84.6327 118.775 79.3251 118.775 74.0175C118.775 73.4343 117.9 73.4343 117.9 74.0175Z" fill="#161616"/>
<path d="M117.379 102.685C117.379 105.251 117.379 107.818 117.379 110.384C117.379 110.938 118.254 110.938 118.254 110.384C118.254 107.818 118.254 105.251 118.254 102.685C118.254 102.131 117.379 102.131 117.379 102.685Z" fill="#161616"/>
<path d="M147.646 24.3531C147.646 29.0483 147.646 33.7434 147.646 38.4386C147.646 38.9927 148.521 38.9927 148.521 38.4386C148.521 33.7434 148.521 29.0483 148.521 24.3531C148.521 23.799 147.646 23.799 147.646 24.3531Z" fill="#161616"/>
<path d="M147.646 43.4546C147.646 46.9833 147.646 50.5411 147.646 54.0698C147.646 54.6239 148.521 54.6239 148.521 54.0698C148.521 50.5411 148.521 46.9833 148.521 43.4546C148.521 42.9005 147.646 42.9005 147.646 43.4546Z" fill="#161616"/>
<path d="M272.961 29.6597C272.961 35.7547 272.961 41.8788 272.961 47.9738C272.961 48.5279 273.836 48.5279 273.836 47.9738C273.836 41.8788 273.836 35.7547 273.836 29.6597C273.836 29.1056 272.961 29.1056 272.961 29.6597Z" fill="#161616"/>
<path d="M272.695 55.148C272.695 58.3267 272.695 61.5346 272.695 64.7133C272.695 65.2674 273.57 65.2674 273.57 64.7133C273.57 61.5346 273.57 58.3267 273.57 55.148C273.57 54.5939 272.695 54.5939 272.695 55.148Z" fill="#161616"/>
<path d="M220.643 19.0457C220.643 22.9535 220.643 26.8321 220.643 30.7399C220.643 31.294 221.517 31.294 221.517 30.7399C221.517 26.8321 221.517 22.9535 221.517 19.0457C221.517 18.4916 220.643 18.4625 220.643 19.0457Z" fill="#161616"/>
<path d="M220.934 41.8785C220.934 45.4071 220.934 48.965 220.934 52.4937C220.934 53.0477 221.808 53.0477 221.808 52.4937C221.808 48.965 221.808 45.4071 221.808 41.8785C221.808 41.3244 220.934 41.3244 220.934 41.8785Z" fill="#161616"/>
<path d="M302.18 60.98C302.18 64.4212 302.18 67.8916 302.18 71.3328C302.18 71.8868 303.055 71.8868 303.055 71.3328C303.055 67.8916 303.055 64.4212 303.055 60.98C303.055 60.4259 302.18 60.4259 302.18 60.98Z" fill="#161616"/>
<path d="M302.445 78.5074C302.445 81.2487 302.445 83.9899 302.445 86.7312C302.445 87.2853 303.32 87.2853 303.32 86.7312C303.32 83.9899 303.32 81.2487 303.32 78.5074C303.32 77.9533 302.445 77.9533 302.445 78.5074Z" fill="#161616"/>
<circle cx="103.439" cy="58.9094" r="4.841" fill="#5222D0"/>
<circle cx="118.049" cy="112.715" r="3.32454" fill="#5222D0"/>
<circle cx="148.465" cy="58.7076" r="1.57478" fill="#5222D0"/>
<circle cx="222.185" cy="62.4996" r="2.21636" fill="#5222D0"/>
<circle cx="222.039" cy="35.1722" r="2.04138" fill="#5222D0"/>
<circle cx="117.755" cy="98.2239" r="2.27468" fill="#EC615B"/>
<circle cx="147.794" cy="23.0697" r="2.24552" fill="#EC615B"/>
<circle cx="147.794" cy="42.9272" r="2.24552" fill="#EC615B"/>
<circle cx="221.077" cy="55.2097" r="1.10818" fill="#EC615B"/>
<circle cx="273.426" cy="69.3517" r="4.63686" fill="#EC615B"/>
<circle cx="303.377" cy="93.5269" r="2.21636" fill="#EC615B"/>
<circle cx="273.399" cy="35.1722" r="2.04138" fill="#EC615B"/>
<circle cx="273.426" cy="44.0084" r="1.57478" fill="#5222D0"/>
<circle cx="302.879" cy="74.192" r="1.57478" fill="#5222D0"/>
<path d="M81.7115 96.8535C80.3409 99.0115 78.9703 101.14 77.5996 103.298C76.5206 104.99 75.4416 106.769 75.0625 108.781C74.45 112.251 76.7831 114.584 78.7661 117.092C79.9035 118.521 80.9533 120.154 80.4575 122.021C80.0201 123.712 78.6203 125.17 78.8244 127.037C78.9119 127.824 79.3202 128.437 79.6702 129.107C80.2534 130.274 80.6617 131.528 80.8075 132.811C81.07 135.202 80.5159 137.594 79.2619 139.635C78.9703 140.131 79.7285 140.568 80.0201 140.072C81.9448 136.894 82.324 132.898 80.8367 129.457C80.3117 128.232 79.4369 127.241 79.816 125.783C80.0784 124.82 80.6325 123.975 81.0116 123.071C81.5657 121.7 81.6241 120.329 81.0408 118.959C79.7285 115.868 76.0832 113.855 75.8499 110.268C75.704 107.848 77.133 105.631 78.3578 103.678C79.7285 101.519 81.0991 99.3615 82.4698 97.2326C82.7614 96.8243 82.0032 96.3869 81.7115 96.8535Z" fill="white"/>
<path d="M135.575 129.892C133.417 132.08 132.338 135.142 132.688 138.204C132.863 139.808 133.505 141.149 134.263 142.578C135.4 144.736 135.663 146.369 134.788 148.644C134.263 149.986 133.592 151.356 133.767 152.814C133.942 154.477 135.225 155.351 136.013 156.722C137.675 159.697 134.321 162.817 135.108 165.996C135.254 166.55 136.1 166.317 135.954 165.762C135.225 162.905 137.966 160.367 137.267 157.48C136.917 156.08 135.779 155.206 135.079 154.01C134.088 152.319 135.021 150.54 135.633 148.877C136.129 147.565 136.479 146.253 136.187 144.853C135.808 143.132 134.642 141.732 134.029 140.099C132.805 136.804 133.738 132.984 136.187 130.505C136.596 130.097 135.983 129.484 135.575 129.892Z" fill="white"/>
<path d="M324.898 136.248C321.982 139.66 319.153 144.063 319.445 148.758C319.59 151.004 320.582 152.812 321.807 154.649C323.236 156.778 324.461 158.79 323.761 161.444C322.827 164.914 319.386 168.385 320.582 172.205C321.311 174.538 323.644 175.821 324.198 178.271C324.84 181.187 323.498 184.249 322.303 186.845C322.069 187.34 322.827 187.807 323.061 187.282C324.052 185.124 325.015 182.879 325.19 180.487C325.365 178.213 324.606 176.404 323.207 174.655C321.544 172.643 320.786 170.922 321.661 168.385C322.332 166.431 323.527 164.681 324.256 162.756C324.956 160.948 325.131 159.082 324.373 157.245C323.586 155.32 322.128 153.833 321.194 151.995C318.57 146.746 322.098 140.855 325.51 136.889C325.89 136.452 325.277 135.839 324.898 136.248Z" fill="white"/>
<path d="M333.093 167.307C331.576 168.736 330.614 170.602 330.351 172.673C330.031 175.152 330.964 176.872 331.955 179.03C333.18 181.684 330.789 184.076 331.43 186.759C331.78 188.217 332.568 189.325 332.539 190.871C332.48 192.474 331.839 193.933 330.731 195.07C330.351 195.478 330.964 196.091 331.343 195.682C332.83 194.166 333.618 192.095 333.355 189.966C333.209 188.742 332.539 187.692 332.276 186.496C331.897 184.892 332.772 183.434 333.093 181.918C333.647 179.351 331.897 177.835 331.343 175.502C330.672 172.731 331.635 169.815 333.705 167.89C334.143 167.54 333.53 166.928 333.093 167.307Z" fill="white"/>
<path d="M251.992 85.9748C250.33 88.5411 248.493 91.5741 249.455 94.7528C249.922 96.2984 251.205 96.94 251.905 98.2815C252.576 99.6229 251.934 101.198 251.467 102.481C250.797 104.318 249.863 106.564 251.555 108.138C252.226 108.751 253.042 109.101 253.334 110.063C253.567 110.851 253.363 111.784 253.217 112.542C252.926 113.942 252.517 115.342 252.692 116.771C252.751 117.325 253.625 117.325 253.567 116.771C253.305 114.379 255.054 111.696 254.034 109.392C253.45 108.051 251.642 107.672 251.467 106.155C251.322 105.018 251.934 103.764 252.313 102.714C253.042 100.702 253.567 98.6897 251.992 96.94C250.534 95.336 249.776 93.7904 250.243 91.5741C250.622 89.6785 251.73 87.9871 252.78 86.3831C253.071 85.9165 252.313 85.4791 251.992 85.9748Z" fill="white"/>
<path d="M132.104 55.1792C130.383 56.3749 130.092 58.5037 131.287 60.166C132.366 61.6242 130.704 62.2949 131.025 63.6655C131.141 64.1613 131.55 64.4529 131.783 64.8904C132.366 65.9694 131.696 67.1067 131.141 68.0691C130.85 68.5649 131.608 69.0023 131.9 68.5065C132.425 67.6025 133.008 66.5526 132.92 65.4736C132.891 64.9779 132.687 64.6571 132.483 64.2196C132.337 63.9572 132.162 63.8697 132.045 63.5489C131.9 62.9948 132.104 62.8781 132.366 62.3532C132.745 61.6242 132.891 61.0117 132.483 60.2535C132.104 59.5536 131.491 59.1453 131.433 58.2704C131.375 57.3372 131.812 56.4332 132.57 55.9083C133.008 55.6166 132.57 54.8584 132.104 55.1792Z" fill="#5222D0"/>
<path d="M90.3731 77.049C89.819 77.6614 89.469 78.3322 89.4107 79.1487C89.3524 80.0819 90.1106 81.0443 89.7023 81.89C89.4107 82.5024 89.0899 82.7357 89.1483 83.494C89.2066 84.2813 90.5189 86.4394 89.3232 86.906C88.7983 87.1101 89.0316 87.9558 89.5565 87.7517C91.0147 87.1976 90.723 85.652 90.3148 84.4563C89.994 83.5231 90.2564 83.0565 90.6647 82.1816C90.7522 81.9775 90.898 81.8317 90.9272 81.5984C90.9855 81.1318 90.723 80.8693 90.5481 80.4902C90.0815 79.4695 90.1981 78.478 90.9563 77.6614C91.3646 77.2531 90.723 76.6116 90.3731 77.049Z" fill="#5222D0"/>
<path d="M313.525 86.1213C312.358 86.0338 311.513 86.9087 311.338 88.046C311.075 89.7083 312.446 90.8748 313.146 92.2163C313.612 93.1495 313.437 93.8785 313.146 94.7826C313 95.2492 312.825 95.1034 312.796 95.6283C312.767 96.0657 312.942 96.3865 313.233 96.7073C314.021 97.6113 314.662 98.0196 314.575 99.3611C314.487 100.557 313.933 101.694 313.408 102.715C313.146 103.211 313.904 103.648 314.166 103.152C314.779 101.986 315.391 100.703 315.45 99.3611C315.537 98.0488 315.012 97.4655 314.312 96.474C314.079 96.3282 313.991 96.0949 314.021 95.7741C313.787 95.4241 313.846 95.1325 314.137 94.8701C314.196 94.6076 314.341 94.4035 314.4 94.1118C314.516 93.4994 314.4 92.887 314.166 92.2746C313.933 91.633 313.525 91.1081 313.146 90.554C312.825 90.0874 312.446 89.5625 312.3 89.0084C312.067 88.1627 312.3 86.8795 313.554 86.967C314.079 87.0545 314.079 86.1796 313.525 86.1213Z" fill="#5222D0"/>
<path d="M223.268 244.733C217.523 245.608 212.682 245.812 209.328 245.812C207.491 272.554 207.753 286.114 210.145 286.494C212.157 286.814 215.686 277.774 220.702 259.372C227.613 257.652 234.554 255.931 241.465 254.211C242.165 247.445 240.591 244.82 239.016 243.625C236.1 241.437 232.017 243.362 223.268 244.733Z" fill="#161616" stroke="#161616" stroke-width="3"/>
<path d="M195.067 197.343C190.226 201.747 191.888 213.703 199.091 226.214C200.783 226.01 203.437 225.835 206.615 226.097C207.928 226.214 212.04 226.622 222.538 230.443C224.725 231.259 227.758 232.396 231.374 233.942C228.546 234.7 225.717 235.459 222.859 236.217C223.18 239.629 223.763 243.507 224.813 247.649C226.738 255.318 229.596 261.588 232.22 266.283C238.782 264.359 244.148 262.463 248.026 261.063C257.329 257.651 262.258 255.202 266.982 251.906C272.027 248.378 274.681 245.403 275.498 241.67C275.964 239.512 275.702 237.646 275.614 236.975C275.031 233.359 273.019 230.909 270.919 228.576C266.311 223.414 264.007 220.848 260.245 217.99C251.643 211.487 243.798 208.075 235.078 204.371C228.342 201.513 223.851 199.618 217.318 198.043C206.878 195.622 199.033 193.727 195.067 197.343Z" fill="#EC615B"/>
<path d="M215.217 197.898C223.995 200.464 232.54 203.73 240.822 207.667C248.083 211.108 255.374 214.929 261.673 219.974C264.59 222.307 267.302 224.902 269.664 227.818C272.23 230.997 275.555 235.284 275.496 239.571C275.438 243.566 271.647 247.212 268.876 249.72C265.931 252.373 262.577 254.473 259.019 256.194C250.329 260.393 240.705 262.114 231.898 266.051C231.373 266.284 231.84 267.042 232.336 266.809C240.793 263.018 250.008 261.297 258.436 257.419C261.994 255.785 265.406 253.773 268.439 251.236C271.268 248.874 274.476 245.753 275.846 242.254C277.334 238.463 275.321 234.555 273.309 231.405C271.122 227.964 268.468 224.844 265.464 222.073C259.515 216.562 252.429 212.479 245.226 208.863C235.689 204.051 225.716 200.085 215.451 197.081C214.896 196.906 214.663 197.723 215.217 197.898Z" fill="#EC615B"/>
<path d="M246.043 229.538C242.164 230.646 238.257 231.755 234.378 232.863C230.558 233.942 226.65 234.904 222.917 236.246C222.392 236.45 222.625 237.296 223.15 237.091C226.883 235.721 230.791 234.788 234.611 233.709C238.49 232.6 242.398 231.492 246.276 230.384C246.801 230.238 246.568 229.392 246.043 229.538Z" fill="#EC615B"/>
<path d="M222.567 236.303C223.529 246.889 226.475 257.241 231.549 266.603C231.812 267.098 232.57 266.661 232.307 266.165C227.321 256.95 224.404 246.743 223.442 236.332C223.413 235.749 222.538 235.749 222.567 236.303Z" fill="#EC615B"/>
<path d="M231.489 233.942C221.369 228.139 209.879 225.106 198.185 225.572C197.631 225.601 197.631 226.476 198.185 226.447C209.704 225.951 221.049 228.955 231.022 234.7C231.547 234.963 231.985 234.204 231.489 233.942Z" fill="#EC615B"/>
<path opacity="0.11" d="M197.604 207.814C200.316 208.427 204.282 209.448 208.977 210.993C212.447 212.131 219.009 214.434 234.086 222.046C239.16 224.612 245.839 228.082 253.567 232.428C243.739 236.773 233.911 241.118 224.083 245.434C223.558 242.43 223.004 239.456 222.479 236.452C225.016 235.636 227.554 234.848 230.091 234.032C226.212 231.903 220.729 229.395 213.847 227.82C208.16 226.508 203.144 226.187 199.207 226.216C198.653 220.063 198.128 213.939 197.604 207.814Z" fill="#3D3D3D"/>
<path opacity="0.11" d="M199.178 226.098C203.815 225.281 211.339 224.523 220.262 226.331C227.961 227.877 233.852 230.764 237.672 233.009C232.861 235.751 228.078 238.463 223.266 241.204C222.945 239.6 222.654 237.967 222.333 236.363C224.899 235.547 227.465 234.759 230.061 233.943C226.649 232.105 222.304 230.151 217.054 228.635C210.026 226.623 203.815 226.098 199.178 226.098Z" fill="#3D3D3D"/>
<path d="M161.299 254.154C165.644 255.67 169.989 257.187 174.305 258.703C175.209 277.455 176.522 286.874 178.213 286.932C180.284 287.02 182.937 273.489 186.204 246.309C179.292 244.647 172.41 242.955 165.498 241.293C164.128 245.58 162.728 249.867 161.299 254.154Z" fill="#161616" stroke="#161616" stroke-width="3"/>
<path d="M199.151 226.13C198.888 217.76 197.926 210.819 196.993 205.745C195.039 195.042 193.347 193.351 191.86 192.651C188.623 191.164 185.327 194.022 177.104 197.784C170.367 200.875 171.242 199.563 159.694 203.908C151.236 207.087 141.029 211.461 130.181 217.818C127.848 219.189 122.365 222.484 117.087 228.434C112.129 234.004 111.779 236.949 111.779 238.378C111.779 239.836 112.129 243.102 116.912 248.002C122.54 253.747 128.898 256.226 147.241 262.087C152.286 263.691 156.894 265.149 161.006 266.403C163.222 262.175 164.914 258.5 166.138 255.642C169.58 247.593 170.309 243.802 170.6 241.878C170.921 239.749 171.067 237.97 171.096 236.745C168.121 235.958 165.118 235.199 162.143 234.412C165.526 232.487 169.725 230.504 174.741 228.929C184.598 225.867 193.26 225.692 199.151 226.13Z" fill="#EC615B"/>
<path d="M163.02 234.644C164.303 234.935 165.615 235.227 166.899 235.519C168.182 235.81 169.64 235.956 170.719 236.773C171.156 237.123 171.594 236.364 171.156 236.014C170.136 235.227 168.882 235.052 167.657 234.79C166.199 234.469 164.711 234.119 163.253 233.798C162.699 233.681 162.466 234.527 163.02 234.644Z" fill="#EC615B"/>
<path d="M179.437 197.142C166.664 200.496 154.241 205.045 142.284 210.673C135.985 213.648 129.89 217.264 124.378 221.522C118.254 226.246 107.289 236.016 113.18 244.589C115.892 248.526 120.004 251.443 124.086 253.805C127.411 255.759 130.94 257.392 134.527 258.762C136.626 259.55 138.813 260.133 140.972 260.804C147.533 262.787 154.095 264.857 160.627 266.957C161.152 267.132 161.385 266.286 160.86 266.111C155.465 264.362 150.07 262.641 144.646 261.008C141.817 260.133 138.93 259.404 136.131 258.412C129.248 256.05 122.162 252.492 116.883 247.477C115.163 245.843 113.384 243.919 112.742 241.615C111.926 238.757 112.946 235.899 114.375 233.449C116.679 229.483 120.091 226.188 123.62 223.301C129.277 218.693 135.664 214.873 142.255 211.723C154.27 205.978 166.839 201.4 179.729 198.046C180.224 197.842 179.991 196.996 179.437 197.142Z" fill="#EC615B"/>
<path d="M144.852 230.476C149.197 231.584 153.572 232.692 157.917 233.771C162.204 234.85 166.578 235.783 170.778 237.183C171.302 237.358 171.536 236.513 171.011 236.338C166.811 234.967 162.437 234.034 158.15 232.926C153.805 231.817 149.431 230.709 145.085 229.63C144.531 229.514 144.298 230.359 144.852 230.476Z" fill="#EC615B"/>
<path d="M170.514 236.423C169.435 246.979 166.081 257.216 160.569 266.256C160.278 266.752 161.036 267.189 161.328 266.693C166.927 257.478 170.31 247.096 171.389 236.393C171.447 235.839 170.572 235.869 170.514 236.423Z" fill="#EC615B"/>
<path d="M161.882 234.793C173.285 228.96 185.97 226.073 198.773 226.54C199.327 226.569 199.327 225.694 198.773 225.665C185.825 225.169 172.964 228.115 161.445 234.035C160.949 234.297 161.386 235.055 161.882 234.793Z" fill="#EC615B"/>
<path opacity="0.13" d="M193.057 210.209C180.517 216.304 172.264 220.591 168.56 222.369C158.82 226.977 149.313 231.206 140.068 235.114C147.126 234.326 154.008 237.592 157.595 243.483C161.649 250.132 160.803 258.939 155.408 265.005C157.274 265.676 159.141 266.347 160.978 266.988C162.553 264.48 164.128 261.622 165.556 258.415C169.348 249.987 170.893 242.171 171.535 236.105C168.881 235.23 166.227 234.385 163.573 233.51C165.965 232.46 168.56 231.439 171.331 230.535C181.829 227.094 191.482 226.277 199.181 226.394C199.094 224.294 198.977 222.165 198.831 219.978C198.539 215.808 198.102 211.813 197.606 208.021C196.556 208.517 194.982 209.305 193.057 210.209Z" fill="#3D3D3D"/>
<path opacity="0.15" d="M198.157 225.634C198.128 225.255 190.633 224.584 181.564 225.867C171.298 227.326 163.279 230.679 158.059 233.362C160.712 235.345 163.366 237.357 166.02 239.341C164.591 248.06 163.191 256.78 161.762 265.499C164.708 260.658 168.032 253.893 169.957 245.348C170.715 241.936 171.123 238.786 171.328 235.899C170.54 235.666 169.724 235.433 168.907 235.199C167.012 234.675 165.174 234.208 163.366 233.829C164.795 233.187 166.807 232.312 169.257 231.408C185.092 225.517 198.157 226.101 198.157 225.634Z" fill="#3D3D3D"/>
<path d="M220.439 129.393C221.926 128.897 224.171 131.201 225.513 132.543C227.671 134.73 228.75 136.946 229.071 137.617C233.037 145.841 232.337 142.574 235.691 150.215C239.803 159.635 242.602 168.529 242.602 168.529C243.973 172.874 244.819 176.111 247.472 180.107C250.476 184.598 252.955 185.793 253.976 186.202C257.359 187.602 260.566 186.989 261.995 186.61C263.541 185.094 264.737 183.781 265.553 182.848C267.215 180.952 267.915 179.932 269.228 179.786C269.519 179.757 270.861 179.611 271.561 180.398C271.882 180.748 271.94 181.127 272.261 181.215C272.669 181.332 273.077 180.865 273.573 180.398C273.777 180.194 275.119 178.94 276.518 178.357C277.247 178.036 278.647 177.628 279.056 178.153C279.464 178.678 278.56 179.786 278.968 180.194C279.376 180.603 280.368 179.669 281.418 180.107C282.001 180.369 282.497 181.011 282.526 181.623C282.584 182.381 281.943 182.556 281.826 183.548C281.709 184.364 282.088 184.51 282.03 185.181C281.913 186.202 280.98 186.348 279.697 187.835C278.968 188.681 279.172 188.739 277.86 190.693C277.364 191.422 276.723 192.384 276.227 192.938C274.302 195.096 271.036 195.271 269.315 195.388C265.991 195.563 263.366 194.571 261.879 193.872C260.887 194.571 259.371 195.446 257.417 196.117C252.372 197.779 247.939 196.613 246.131 196.117C238.928 194.105 234.699 188.651 231.9 184.919C227.729 179.378 226.213 174.566 223.472 165.817C222.626 163.163 220.089 154.735 219.097 143.449C218.689 138.317 218.018 130.209 220.439 129.393Z" fill="white"/>
<path d="M221.255 130.444C223.821 131.289 225.6 133.36 227.087 135.547C228.633 137.793 230.004 140.155 231.316 142.575C233.97 147.533 236.186 152.695 238.257 157.915C240.356 163.164 242.281 168.472 244.235 173.75C245.81 177.95 247.705 182.411 251.351 185.211C254.734 187.807 259.545 188.886 263.337 186.523C263.803 186.232 263.366 185.474 262.899 185.765C258.875 188.273 253.684 186.523 250.563 183.345C247.005 179.67 245.489 174.567 243.768 169.901C240.123 159.927 236.39 149.778 231.17 140.476C228.895 136.422 226.213 131.173 221.488 129.598C220.963 129.423 220.73 130.269 221.255 130.444Z" fill="#161616"/>
<path d="M220.962 158.703C223.558 167.685 225.745 177.075 231.082 184.891C235.485 191.365 242.018 196.526 250.037 197.168C254.382 197.518 258.786 196.468 262.286 193.843C262.723 193.523 262.286 192.735 261.848 193.085C257.765 196.177 252.487 196.964 247.529 195.943C242.63 194.923 238.401 192.094 235.048 188.478C227.436 180.225 224.899 168.968 221.866 158.498C221.662 157.944 220.816 158.178 220.962 158.703Z" fill="#161616"/>
<path d="M263.423 186.638C264.648 184.917 265.785 182.934 267.272 181.447C268.147 180.572 269.576 179.697 270.83 180.397C271.909 181.01 271.997 182.409 271.355 183.343C271.034 183.809 271.793 184.247 272.113 183.78C273.484 181.826 272.055 179.202 269.664 179.318C268.235 179.406 267.068 180.31 266.193 181.389C264.939 182.905 263.86 184.597 262.694 186.201C262.344 186.638 263.102 187.075 263.423 186.638Z" fill="#161616"/>
<path d="M267.476 182.819C266.834 184.102 267.622 185.589 269.051 185.823C270.771 186.085 272.025 184.627 272.317 183.081C272.434 182.527 271.588 182.294 271.471 182.848C271.296 183.781 270.8 184.744 269.78 184.948C268.817 185.152 267.738 184.306 268.234 183.286C268.467 182.761 267.709 182.323 267.476 182.819Z" fill="#161616"/>
<path d="M261.705 194.103C265.059 194.773 268.238 196.319 271.708 195.59C274.508 195.007 276.899 193.286 278.445 190.924C278.766 190.457 278.007 190.02 277.687 190.487C276.17 192.79 273.779 194.394 271.037 194.832C267.888 195.328 264.942 193.869 261.91 193.257C261.385 193.17 261.151 194.015 261.705 194.103Z" fill="#161616"/>
<path d="M269.957 184.946C269.024 185.5 269.141 186.784 269.928 187.454C270.599 188.008 271.503 187.921 272.319 187.921C273.719 187.892 274.886 188.125 276.11 188.825C276.606 189.087 277.044 188.358 276.548 188.067C275.644 187.542 274.681 187.192 273.632 187.075C273.136 187.017 272.64 187.046 272.115 187.046C271.794 187.046 271.474 187.075 271.182 187.017C270.832 186.929 269.695 186.142 270.395 185.734C270.861 185.413 270.424 184.655 269.957 184.946Z" fill="#161616"/>
<path d="M270.538 185.326C272.726 184.072 275.408 184.334 277.275 186.055C277.683 186.434 278.296 185.822 277.887 185.442C275.729 183.459 272.638 183.109 270.101 184.568C269.605 184.859 270.043 185.617 270.538 185.326Z" fill="#161616"/>
<path d="M272.436 181.77C273.398 181.07 274.331 180.4 275.294 179.7C275.702 179.408 276.081 179.116 276.519 178.854C276.81 178.679 277.102 178.504 277.423 178.387C278.793 177.921 279.114 178.592 278.356 180.4C277.831 180.575 278.064 181.42 278.589 181.245C280.164 180.691 280.718 178.562 279.085 177.658C278.181 177.133 277.102 177.513 276.285 177.979C274.798 178.825 273.427 180.02 272.028 181.012C271.532 181.362 271.969 182.12 272.436 181.77Z" fill="#161616"/>
<path d="M274.3 184.103C275.467 183.374 276.633 182.616 277.8 181.887C278.324 181.566 278.849 181.187 279.433 180.924C279.87 180.691 280.337 180.604 280.832 180.604C281.853 180.604 282.232 181.216 281.97 182.412C281.62 182.849 282.232 183.462 282.582 183.024C283.69 181.624 282.699 179.904 281.007 179.758C279.899 179.641 278.908 180.195 278.004 180.749C276.604 181.595 275.233 182.499 273.863 183.374C273.367 183.637 273.804 184.395 274.3 184.103Z" fill="#161616"/>
<path d="M277.713 185.472C278.5 185.035 279.287 184.626 280.075 184.247C280.337 184.101 281.212 183.577 281.475 183.635C282.204 183.781 281.708 184.51 281.533 184.801C281.241 185.268 282 185.735 282.291 185.239C282.758 184.481 283.166 182.993 281.912 182.76C281.241 182.614 280.512 183.081 279.929 183.372C279.025 183.81 278.121 184.247 277.246 184.743C276.779 185.005 277.246 185.764 277.713 185.472Z" fill="#161616"/>
<path d="M276.49 185.268C278.589 186.434 278.998 189.03 277.335 190.779C276.956 191.188 277.569 191.8 277.948 191.392C279.989 189.263 279.523 185.938 276.927 184.509C276.461 184.247 275.994 185.005 276.49 185.268Z" fill="#161616"/>
<path d="M281.853 184.945C280.92 186.141 279.841 187.191 278.646 188.066C278.208 188.387 278.616 189.145 279.083 188.824C280.366 187.891 281.504 186.812 282.495 185.558C282.816 185.12 282.203 184.508 281.853 184.945Z" fill="#161616"/>
<path d="M267.681 188.36C269.518 188.506 271.239 189.089 272.785 190.11C273.251 190.431 273.689 189.672 273.222 189.351C271.531 188.272 269.693 187.66 267.681 187.485C267.127 187.456 267.127 188.331 267.681 188.36Z" fill="#161616"/>
<path opacity="0.09" d="M217.492 136.449C218.017 140.182 218.863 145.431 220.117 151.73C220.933 155.813 221.517 158.817 222.596 162.812C224.229 168.878 225.57 173.982 228.72 179.902C230.79 183.78 232.19 186.434 235.106 189.292C237.177 191.304 242.601 196.612 250.767 196.728C255.754 196.787 259.691 194.891 261.994 193.462C263.365 194.22 265.727 195.241 268.789 195.299C270.218 195.329 272.901 195.358 275.438 193.608C276.313 192.996 278.646 191.421 278.821 188.767C278.85 188.359 278.967 186.142 277.392 184.976C275.642 183.693 272.785 184.451 272.551 185.355C272.347 186.201 274.447 186.901 274.388 188.096C274.301 189.613 270.86 190.546 270.218 190.721C249.688 196.262 238.635 187.076 238.635 187.076C235.281 184.276 233.502 181.243 229.361 170.89C225.949 162.375 221.662 150.739 217.492 136.449Z" fill="#3D3D3D"/>
<path d="M134.179 192.386C135.52 193.377 139.078 195.681 143.948 195.652C148.498 195.623 151.705 193.552 153.514 192.386C156.517 190.461 158.238 188.332 159.813 186.291C164.712 180.079 166.666 173.605 168.066 168.91C169.32 164.71 168.824 164.944 170.02 161.298C172.265 154.474 174.19 152.929 176.115 148.058C179.293 140.009 179.497 130.415 176.989 129.365C175.823 128.899 174.102 130.269 170.69 133.069C169.67 133.914 167.862 135.402 165.966 137.706C164.45 139.572 161.796 143.247 158.85 152.024C156.459 159.198 156.984 160.365 154.155 168.297C152.405 173.226 151.297 175.238 149.956 177.075C148.439 179.117 145.931 182.441 141.382 184.191C137.912 185.532 134.791 185.357 133.071 185.124C132.837 183.958 132.05 180.75 129.338 179.175C128.667 178.767 127.034 177.833 125.867 178.533C125.197 178.942 124.963 179.7 124.876 180.108C123.593 178.3 122.193 177.513 121.405 177.163C120.647 176.842 119.102 176.142 118.46 176.784C117.877 177.367 118.402 178.708 118.46 178.883C117.644 178.446 116.71 178.504 116.04 179C115.544 179.379 114.99 180.137 115.194 180.954C115.34 181.508 115.777 181.858 115.923 181.945C115.748 182.441 115.602 183.199 115.865 183.987C116.01 184.395 116.185 184.657 117.235 185.824C118.577 187.34 118.606 187.282 118.868 187.661C119.597 188.74 119.452 189.323 119.918 190.286C120.735 192.065 122.485 192.91 123.068 193.173C124.934 194.077 126.655 193.844 129.484 193.435C131.292 193.231 132.866 192.823 134.179 192.386Z" fill="white"/>
<path d="M176.899 128.578C172.437 130.823 168.413 133.915 165.292 137.851C162.172 141.788 160.014 146.338 158.381 151.062C156.748 155.845 155.581 160.773 154.327 165.643C153.132 170.368 151.119 175.267 147.97 179.029C144.295 183.433 138.579 185.124 133.009 184.483C132.455 184.424 132.455 185.299 133.009 185.357C137.413 185.853 141.991 185.007 145.637 182.412C149.486 179.671 151.907 175.092 153.627 170.776C155.465 166.198 156.281 161.211 157.623 156.486C159.052 151.383 160.801 146.309 163.601 141.788C166.925 136.393 171.679 132.194 177.337 129.365C177.861 129.074 177.395 128.315 176.899 128.578Z" fill="#161616"/>
<path d="M170.631 157.215C167.977 167.306 165.819 178.183 159.17 186.553C156.283 190.169 152.521 193.26 147.972 194.485C143.247 195.768 138.144 195.039 134.323 191.89C133.886 191.54 133.274 192.152 133.711 192.502C139.514 197.285 147.797 196.789 153.862 192.706C160.511 188.244 164.448 180.72 167.015 173.342C168.823 168.151 170.077 162.756 171.477 157.449C171.622 156.894 170.777 156.661 170.631 157.215Z" fill="#161616"/>
<path d="M133.474 184.921C132.454 183.346 131.491 181.684 130.354 180.197C129.567 179.147 128.517 178.155 127.117 178.039C124.696 177.893 123.647 180.663 124.813 182.501C125.105 182.967 125.863 182.53 125.571 182.063C125.017 181.188 125.046 179.73 126.038 179.118C127.438 178.243 128.867 179.672 129.625 180.663C130.762 182.151 131.695 183.784 132.716 185.359C133.008 185.825 133.766 185.388 133.474 184.921Z" fill="#161616"/>
<path d="M128.343 182.004C128.809 182.996 127.847 183.987 126.826 183.637C125.98 183.346 125.601 182.383 125.456 181.567C125.368 181.013 124.522 181.246 124.61 181.8C124.872 183.258 125.922 184.775 127.584 184.571C129.013 184.396 129.655 182.792 129.101 181.567C128.868 181.042 128.109 181.479 128.343 182.004Z" fill="#161616"/>
<path d="M134.088 192.006C131.405 192.589 128.78 194.018 125.981 193.581C123.327 193.173 121.111 191.481 119.769 189.236C119.478 188.74 118.719 189.207 119.011 189.673C120.382 191.977 122.54 193.727 125.193 194.339C128.401 195.068 131.259 193.523 134.321 192.852C134.875 192.735 134.642 191.89 134.088 192.006Z" fill="#161616"/>
<path d="M126.39 184.427C126.595 184.573 126.624 184.865 126.536 185.069C126.361 185.652 125.72 185.71 125.195 185.769C124.641 185.798 124.087 185.71 123.503 185.769C122.512 185.885 121.608 186.235 120.762 186.76C120.295 187.052 120.733 187.81 121.199 187.519C122.278 186.848 123.357 186.585 124.641 186.615C125.399 186.644 126.186 186.702 126.799 186.177C127.586 185.536 127.674 184.223 126.799 183.669C126.361 183.377 125.924 184.136 126.39 184.427Z" fill="#161616"/>
<path d="M126.711 183.318C124.408 181.83 121.491 182.238 119.567 184.192C119.158 184.601 119.8 185.213 120.179 184.805C121.841 183.143 124.262 182.793 126.274 184.076C126.741 184.367 127.178 183.609 126.711 183.318Z" fill="#161616"/>
<path d="M125.077 179.816C123.881 178.853 122.715 177.833 121.461 176.958C120.703 176.433 119.74 175.908 118.807 176.258C116.97 176.929 117.349 179.378 118.953 179.991C119.478 180.195 119.711 179.349 119.186 179.145C118.107 177.862 118.195 177.279 119.449 177.395C119.915 177.162 120.323 177.191 120.673 177.483C121.169 177.716 121.636 178.212 122.073 178.533C122.861 179.174 123.677 179.816 124.465 180.457C124.873 180.778 125.514 180.166 125.077 179.816Z" fill="#161616"/>
<path d="M123.269 182.091C122.015 181.216 120.761 180.312 119.507 179.466C118.691 178.912 117.787 178.387 116.795 178.474C115.221 178.62 114.258 180.341 115.221 181.682C115.541 182.12 116.3 181.682 115.979 181.245C115.337 180.078 115.862 179.466 117.495 179.408C117.874 179.524 118.224 179.67 118.545 179.874C118.953 180.108 119.332 180.399 119.712 180.662C120.761 181.391 121.811 182.12 122.861 182.849C123.299 183.17 123.736 182.411 123.269 182.091Z" fill="#161616"/>
<path d="M120.149 183.463C119.361 182.967 118.545 182.501 117.699 182.093C117.145 181.801 116.387 181.276 115.716 181.509C114.666 181.888 115.075 183.288 115.483 183.988C115.745 184.484 116.504 184.046 116.241 183.551C116.154 183.376 115.833 182.851 115.92 182.647C116.037 182.355 116.504 182.53 116.708 182.588C116.941 182.647 117.174 182.822 117.408 182.938C118.195 183.347 118.953 183.784 119.711 184.251C120.178 184.513 120.645 183.755 120.149 183.463Z" fill="#161616"/>
<path d="M120.439 183.259C117.989 184.775 117.668 188.012 119.505 190.141C119.885 190.579 120.497 189.937 120.118 189.529C118.66 187.837 118.922 185.213 120.876 184.017C121.343 183.726 120.905 182.967 120.439 183.259Z" fill="#161616"/>
<path d="M115.309 184.219C116.184 185.444 117.204 186.552 118.4 187.514C118.838 187.864 119.45 187.252 119.013 186.902C117.875 185.998 116.913 184.977 116.067 183.782C115.717 183.315 114.959 183.752 115.309 184.219Z" fill="#161616"/>
<path d="M128.869 186.233C127.032 186.408 125.312 187.021 123.795 188.1C123.329 188.42 123.766 189.179 124.233 188.858C125.632 187.866 127.149 187.254 128.869 187.108C129.453 187.05 129.453 186.175 128.869 186.233Z" fill="#161616"/>
<path opacity="0.17" d="M175.443 140.184C171.797 149.049 168.998 156.194 167.219 160.86C163.049 171.708 161.882 175.5 157.945 180.486C154.591 184.715 150.625 189.993 143.918 191.014C139.718 191.656 136.161 190.372 134.09 189.439C133.565 189.848 129.57 192.705 125.691 191.189C123.533 190.343 121.404 188.156 121.842 186.815C122.279 185.444 125.195 185.531 125.166 184.89C125.137 184.365 123.125 183.636 121.317 184.19C121.054 184.277 119.275 184.861 118.692 186.465C117.934 188.594 119.917 190.781 120.442 191.364C123.125 194.339 127.237 194.193 127.966 194.164C130.911 194.076 133.069 192.764 134.09 192.064C135.402 193.172 137.706 194.805 140.914 195.388C146.834 196.497 151.617 193.172 154.241 191.539C161.736 186.785 164.565 179.203 166.869 173.487C167.977 170.717 168.473 168.909 171.185 157.856C172.876 150.857 174.334 144.85 175.443 140.184Z" fill="#3D3D3D"/>
<path opacity="0.17" d="M116.563 179.086C117.555 178.911 118.838 181.536 119.713 183.636C119.275 185.881 118.721 186.377 118.313 186.435C117.147 186.64 115.164 183.782 115.513 181.186C115.543 180.982 115.776 179.232 116.563 179.086Z" fill="#3D3D3D"/>
<path d="M176.58 128.786C171.068 135.114 170.951 142.93 170.922 156.636C170.893 173.23 173.868 187.199 177.046 197.61C181.829 199.039 188.77 200.555 197.198 200.555C205.509 200.555 212.362 199.039 217.116 197.61C218.195 193.148 219.624 186.586 220.732 178.596C224.552 151.504 227.06 133.685 217.116 124.937C207.084 116.13 185.999 117.967 176.58 128.786Z" fill="white" stroke="#161616" stroke-width="3"/>
<path opacity="0.1" d="M203.905 119.891C205.159 122.457 206.821 126.423 207.871 131.468C208.834 136.076 210.321 146.312 201.893 171.8C199.501 179.062 195.885 188.802 190.49 200C192.794 200.234 195.273 200.379 197.898 200.35C205.392 200.321 211.896 199.096 217.057 197.638C219.274 186.79 220.849 177.545 221.928 170.517C223.269 161.885 224.202 154.594 223.911 145.379C223.561 133.714 221.578 130.331 220.469 128.756C215.716 121.815 207.142 120.299 203.905 119.891Z" fill="#3D3D3D"/>
<path opacity="0.13" d="M223.444 137.24C222.132 141.206 220.236 147.331 218.37 154.971C216.037 164.507 215.687 168.503 214.404 173.606C212.683 180.255 209.096 189.645 200.668 200.377C203.438 200.465 207.142 200.261 211.341 199.123C213.558 198.511 215.512 197.724 217.116 196.965C218.603 188.858 219.915 181.247 221.082 174.189C223.152 161.824 223.881 156.721 223.969 149.955C224.056 144.618 223.736 140.244 223.444 137.24Z" fill="#3D3D3D"/>
<path d="M190.956 113.006C189.994 114.318 190.461 115.514 190.257 120.413C190.111 123.621 189.79 126.187 189.557 127.82C190.548 128.52 193.348 130.299 197.314 130.299C201.98 130.299 205.1 127.849 205.946 127.12C205.567 126.07 205.1 124.496 204.721 122.542C203.642 116.972 204.75 115.251 203.496 113.356C201.251 110.002 193.26 109.856 190.956 113.006Z" fill="white" stroke="#161616" stroke-width="3"/>
<path d="M179.147 97.2904C179.03 101.431 179.963 104.523 180.721 107.002C181.859 110.647 183.113 114.73 186.729 118.462C189.879 121.729 193.553 123.42 196.44 124.295C198.656 123.391 202.302 121.554 205.626 117.938C209.242 114.001 210.613 110.005 211.634 107.002C212.509 104.406 213.996 99.7109 213.384 93.5867C212.946 89.2998 212.48 84.663 208.805 81.076C203.381 75.7975 195.449 77.1682 194.34 77.3723C186.641 78.8013 182.763 84.8963 181.83 86.5585C179.322 90.8163 179.205 94.9865 179.147 97.2904Z" fill="white" stroke="#161616" stroke-width="3"/>
<path d="M194.458 100.469C194.283 104.201 194.633 107.905 195.537 111.521C195.624 111.813 196.062 111.959 196.266 111.725C196.936 110.938 197.374 110.092 197.578 109.072C197.695 108.518 196.849 108.284 196.732 108.838C196.557 109.742 196.237 110.413 195.653 111.113C195.887 111.171 196.149 111.23 196.382 111.317C195.508 107.759 195.187 104.143 195.333 100.498C195.333 99.9145 194.458 99.9145 194.458 100.469Z" fill="#161616"/>
<path d="M200.58 101.75C202.65 103.938 206.82 104.55 207.929 101.021C208.104 100.496 207.258 100.263 207.083 100.788C206.179 103.675 202.796 102.771 201.221 101.109C200.784 100.73 200.171 101.342 200.58 101.75Z" fill="#161616"/>
<path d="M185.97 107.405C185.97 107.318 185.941 107.434 185.912 107.434C185.883 107.463 185.824 107.463 185.766 107.463C185.679 107.288 185.562 107.113 185.475 106.938C185.504 106.909 185.504 106.88 185.533 106.851C185.3 106.909 185.154 107.143 185.241 107.376C185.3 107.609 185.562 107.755 185.766 107.668C186.029 107.58 186.204 107.405 186.32 107.143C186.408 106.938 186.233 106.647 186.029 106.618C185.649 106.53 185.212 106.734 185.125 107.143C185.095 107.376 185.183 107.638 185.416 107.668C185.649 107.784 185.941 107.668 185.97 107.405Z" fill="#161616"/>
<path d="M190.286 106.269C190.227 106.706 190.111 106.735 189.936 106.356C189.615 106.094 189.673 105.977 190.111 106.035C189.907 105.919 189.644 105.977 189.498 106.181C189.382 106.385 189.44 106.677 189.644 106.793C190.14 107.085 190.752 106.444 190.373 105.977C189.994 105.51 189.236 105.919 189.382 106.473C189.44 106.706 189.702 106.852 189.907 106.764C190.227 106.764 190.344 106.502 190.286 106.269Z" fill="#161616"/>
<path d="M188.711 109.303C188.711 109.362 188.681 109.42 188.623 109.478C188.681 109.42 188.565 109.507 188.594 109.478C188.506 109.507 188.623 109.449 188.594 109.478C188.536 109.478 188.506 109.478 188.536 109.478C188.565 109.478 188.565 109.478 188.477 109.478C188.448 109.478 188.448 109.449 188.419 109.449C188.448 109.478 188.448 109.449 188.39 109.42C188.273 109.303 188.273 109.128 188.361 109.012C188.477 108.895 188.681 108.953 188.74 109.07C188.623 108.866 188.361 108.807 188.127 108.924C187.923 109.041 187.836 109.332 187.981 109.537C188.156 109.828 188.536 109.916 188.827 109.741C189.119 109.595 189.235 109.216 189.06 108.924C188.711 108.37 187.777 108.691 187.777 109.303C187.777 109.537 187.981 109.741 188.215 109.741C188.506 109.741 188.711 109.566 188.711 109.303Z" fill="#161616"/>
<path d="M203.555 105.599C203.759 105.628 203.876 105.744 203.905 105.89C203.934 106.065 203.817 106.182 203.555 106.269C203.467 106.24 203.409 106.24 203.322 106.211C203.176 106.124 203.147 106.007 203.234 105.861C203.38 105.628 203.817 105.715 203.73 106.036C203.788 105.803 203.672 105.54 203.438 105.511C203.205 105.453 202.972 105.57 202.913 105.803C202.797 106.211 203.147 106.649 203.584 106.59C203.963 106.532 204.196 106.153 204.08 105.774C204.021 105.57 203.817 105.395 203.584 105.395C203.409 105.395 203.234 105.511 203.147 105.657C202.972 105.978 203.205 106.503 203.613 106.474C203.847 106.444 204.051 106.299 204.051 106.036C203.992 105.832 203.817 105.57 203.555 105.599Z" fill="#161616"/>
<path d="M206.851 105.92C206.88 105.891 206.88 105.92 206.851 105.92C206.821 105.949 206.763 106.008 206.705 106.066C206.53 106.008 206.384 105.949 206.209 105.862C206.209 105.774 206.209 105.716 206.209 105.628C206.209 105.599 206.238 105.599 206.238 105.57C206.296 105.512 206.355 105.453 206.384 105.424C206.559 105.483 206.705 105.541 206.88 105.628C206.88 105.716 206.88 105.774 206.88 105.862V105.833C206.938 105.599 206.821 105.337 206.588 105.308C206.355 105.249 206.121 105.366 206.063 105.599C205.917 106.182 206.792 106.532 207.055 105.949C207.171 105.716 207.055 105.424 206.821 105.308C206.559 105.162 206.267 105.249 206.121 105.483C205.976 105.687 206.092 105.978 206.267 106.095C206.471 106.212 206.734 106.095 206.851 105.92Z" fill="#161616"/>
<path d="M205.246 108.806C205.217 108.718 205.246 108.806 205.217 108.835C205.217 108.864 205.13 108.922 205.217 108.864C204.984 108.835 204.751 108.806 204.517 108.777C204.342 108.514 204.663 108.281 204.896 108.397C204.692 108.281 204.43 108.339 204.284 108.543C204.167 108.747 204.226 109.039 204.43 109.156C204.663 109.272 204.955 109.243 205.13 109.039C205.305 108.864 205.363 108.543 205.217 108.31C205.071 108.077 204.722 108.018 204.517 108.222C204.313 108.427 204.226 108.747 204.313 109.01C204.401 109.243 204.605 109.389 204.838 109.301C205.159 109.301 205.334 109.039 205.246 108.806Z" fill="#161616"/>
<path d="M192.529 113.94C194.6 116.098 197.895 116.039 199.849 113.736C200.199 113.298 199.587 112.686 199.237 113.123C197.604 115.048 194.921 115.165 193.142 113.327C192.763 112.919 192.15 113.531 192.529 113.94Z" fill="#161616"/>
<path d="M187.165 96.2692C188.04 95.3068 189.265 94.8986 190.548 95.161C191.102 95.2777 191.336 94.432 190.781 94.3153C189.207 93.9945 187.632 94.4611 186.553 95.6568C186.174 96.0651 186.786 96.6775 187.165 96.2692Z" fill="#161616"/>
<path d="M200.875 94.4888C202.216 94.343 203.441 94.6638 204.52 95.4512C204.986 95.772 205.424 95.0137 204.957 94.693C203.762 93.8181 202.333 93.439 200.875 93.6139C200.32 93.6723 200.32 94.5471 200.875 94.4888Z" fill="#161616"/>
<path d="M185.59 102.012C187.66 104.199 191.831 104.812 192.939 101.283C193.114 100.758 192.268 100.525 192.093 101.05C191.189 103.937 187.806 103.033 186.231 101.371C185.823 100.962 185.181 101.604 185.59 102.012Z" fill="#161616"/>
<path d="M195.213 83.6982C197.108 85.9729 199.383 88.4226 202.124 90.9014C205.857 94.2843 209.502 96.9089 212.681 98.892C212.506 101.517 211.952 105.541 209.969 110.061C208.015 114.552 205.42 117.673 203.641 119.568C203.466 120.968 203.407 123.359 204.545 125.751C207.199 131.321 214.839 133.829 220.701 131.933C221.401 131.7 226.329 130.038 227.933 125.605C228.371 124.38 228.604 122.893 227.933 118.956C226.971 113.269 225.279 109.099 224.784 107.816C223.384 104.258 221.576 99.1253 219.943 92.4178C219.418 90.0848 217.26 81.7152 209.677 76.8742C207.694 75.591 203.437 72.8789 198.071 73.6954C195.738 74.0454 193.93 74.9494 192.792 75.6493C190.343 75.8535 185.968 76.5534 181.769 79.5863C172.262 86.4103 172.524 98.717 172.553 99.971C172.262 101.517 171.766 103.85 170.891 106.62C168.733 113.386 166.925 114.231 166.517 118.402C166.4 119.452 165.875 124.759 169.375 129.104C170.104 130.008 172.349 132.721 176.169 133.479C181.244 134.5 186.697 131.642 188.943 127.151C190.197 124.643 190.168 122.222 190.051 120.939C189.205 120.181 181.419 113.123 182.352 102.129C183.402 89.6182 194.688 83.9607 195.213 83.6982Z" fill="#5222D0"/>
<path opacity="0.11" d="M206.004 94.2832C206.529 96.2663 207.112 99.27 206.792 102.886C206.383 107.494 204.75 110.731 203.059 114.055C201.717 116.68 199.618 120.267 196.293 124.029C196.818 123.942 197.43 123.767 198.043 123.533C199.472 123.008 200.551 122.279 201.28 121.667C201.046 124.408 200.813 127.149 200.609 129.891C202.271 129.162 203.934 128.462 205.596 127.733C205.246 124.816 204.867 121.929 204.517 119.013C205.217 118.138 206.208 116.855 207.258 115.193C208.716 112.889 210.787 109.564 211.866 104.928C212.216 103.44 212.566 101.253 212.537 98.5701C210.379 97.1703 208.191 95.7122 206.004 94.2832Z" fill="#3D3D3D"/>
<path opacity="0.16" d="M212.567 99.0965C212.334 99.0382 211.693 102.042 209.739 106.533C209.739 106.533 208.28 109.858 206.618 112.686C205.073 115.311 202.011 119.715 196.236 124.322C196.878 124.614 197.549 124.905 198.19 125.197C200.086 124.993 201.981 124.818 203.877 124.614C203.789 123.01 203.673 121.406 203.585 119.831C205.86 117.498 208.98 113.678 210.934 108.195C212.509 103.617 212.859 99.1549 212.567 99.0965Z" fill="#3D3D3D"/>
<path opacity="0.29" d="M168.91 112.013C168.851 112.976 168.91 114.638 169.697 116.417C170.834 118.954 173.488 121.724 176.346 121.695C179.816 121.666 183.666 117.467 183.491 111.518C184.045 112.917 184.891 114.609 186.145 116.417C187.574 118.487 189.119 120.033 190.344 121.112C190.373 122.074 190.286 123.562 189.761 125.224C189.469 126.157 188.74 128.053 187.107 129.832C186.407 130.59 184.133 133.04 180.458 133.652C175.121 134.527 171.097 130.823 170.368 130.123C165.585 125.545 166.402 119.071 166.548 118.079C166.956 115.25 168.122 113.18 168.91 112.013Z" fill="#3D3D3D"/>
<path opacity="0.12" d="M212.769 98.9785C213.003 100.407 213.323 102.682 213.557 105.54C214.052 111.664 213.557 113.297 214.548 116.418C214.694 116.914 216.94 123.796 220.235 123.854C222.801 123.913 225.659 119.888 226.796 113.968C227.701 116.914 228.08 119.422 228.255 121.2C228.546 124.088 228.284 125.05 228.167 125.517C227.351 128.17 225.193 129.628 224.055 130.416C220.031 133.157 215.686 132.749 215.044 132.661C214.023 132.545 209.299 131.932 206.149 127.966C205.654 127.354 204.079 125.283 203.612 122.192C203.466 121.171 203.466 120.267 203.525 119.655C205.304 117.905 207.666 115.135 209.591 111.227C211.982 106.269 212.594 101.749 212.769 98.9785Z" fill="#3D3D3D"/>
</svg>
