<svg width="417" height="284" viewBox="0 0 417 284" fill="none" xmlns="http://www.w3.org/2000/svg">
<path d="M17.2181 213.603C18.0101 215.949 17.1595 218.296 16.8075 220.613C16.5141 222.578 16.7488 224.309 17.8341 226.01C18.4208 226.92 19.2421 227.858 19.4767 228.944C19.7701 230.293 18.7728 231.232 18.3328 232.405C17.8928 233.578 18.1861 235.25 19.6527 235.456C19.5941 235.221 19.5354 234.957 19.4474 234.722C18.7728 235.456 18.5674 236.541 19.1834 237.391C19.6527 238.037 20.6501 238.095 20.9141 238.946C21.178 239.797 20.7381 240.882 20.5914 241.703C20.0341 245.135 22.1167 248.127 24.5806 250.269C27.4553 252.791 30.6232 254.844 33.2045 257.69C35.9031 260.652 38.1324 264.055 39.8043 267.692C40.039 268.191 40.8017 267.751 40.567 267.252C37.7511 261.18 33.4978 256.018 28.1592 251.97C25.1966 249.741 21.5007 247.101 21.354 242.994C21.3247 241.674 21.97 240.354 21.794 239.034C21.7354 238.623 21.618 238.213 21.3247 237.89C20.6794 237.127 18.7728 236.658 20.0341 235.309C20.2394 235.104 20.1807 234.634 19.8287 234.576C17.8341 234.282 19.6527 231.76 19.9754 230.968C20.2394 230.381 20.3861 229.794 20.3274 229.149C20.1807 227.477 18.8314 226.216 18.0981 224.778C16.2208 221.141 19.3007 217.093 18.0101 213.309C17.8928 212.84 17.0421 213.075 17.2181 213.603Z" fill="#E8E8E8"/>
<path d="M17.8339 214.453C38.0442 223.4 43.0014 247.13 46.5213 266.666C46.6093 267.223 47.46 266.988 47.372 266.431C44.4681 250.21 41.0948 232.728 28.7457 220.789C25.6951 217.827 22.1752 215.392 18.2739 213.691C17.7752 213.456 17.3059 214.219 17.8339 214.453Z" fill="#E8E8E8"/>
<path d="M19.3001 216.505C30.0946 230.204 37.7798 246.249 41.7104 263.232C41.8277 263.79 42.6783 263.555 42.561 262.998C38.6011 245.838 30.8279 229.705 19.9455 215.86C19.5641 215.42 18.9482 216.065 19.3001 216.505Z" fill="#E8E8E8"/>
<path d="M21.6749 231.2C28.0401 234.103 33.144 239.207 36.0773 245.573C36.3119 246.101 37.0746 245.631 36.8399 245.133C33.8773 238.65 28.6268 233.399 22.1442 230.437C21.5869 230.202 21.1469 230.965 21.6749 231.2Z" fill="#E8E8E8"/>
<path d="M43.5888 247.276C41.6529 238.916 48.2821 232.17 52.3886 225.716C54.3833 222.578 56.0552 219.205 57.3165 215.714C57.9325 214.013 58.3725 212.253 58.9005 210.522C59.3992 208.879 60.0738 207.031 61.8631 206.533C61.6871 206.474 61.5405 206.386 61.3645 206.327C62.0391 207.647 62.3911 209.085 62.2444 210.581C62.1565 211.519 61.4525 212.546 61.5405 213.426C61.5991 213.954 62.0685 214.775 62.2444 215.303C62.4498 215.978 62.5964 216.653 62.6844 217.327C62.8018 218.149 62.8604 218.97 62.8604 219.791C62.8604 220.407 62.4498 222.079 62.6551 222.548C62.4204 222.05 61.7751 222.431 61.8631 222.9C62.6844 227.887 63.8578 232.962 64.1511 237.977C64.4444 243.023 62.4204 247.305 59.8685 251.529C55.3513 259.009 50.5407 266.988 51.45 276.11C51.5087 276.667 52.3886 276.667 52.33 276.11C51.3327 266.108 57.3165 258.07 61.9218 249.799C64.0924 245.897 65.3537 241.908 65.0017 237.42C64.6204 232.492 63.5058 227.564 62.7138 222.666C62.4498 222.783 62.1858 222.9 61.9218 223.018C61.9511 223.076 61.9805 223.135 62.0098 223.194C62.0685 223.34 62.2444 223.399 62.3911 223.399C63.4764 223.428 63.5938 222.196 63.6818 221.375C63.9164 219.351 63.7404 217.298 63.2124 215.362C63.0071 214.629 62.5084 213.807 62.5964 213.045C62.6844 212.341 63.0658 211.607 63.1538 210.845C63.3591 209.114 62.9778 207.442 62.1858 205.917C62.0978 205.741 61.8631 205.653 61.6871 205.711C58.6659 206.591 58.1965 210.17 57.4339 212.751C56.1139 217.181 54.1779 221.404 51.6847 225.306C47.4021 232.023 40.7729 238.857 42.7968 247.54C42.8848 248.068 43.7355 247.833 43.5888 247.276Z" fill="#E8E8E8"/>
<path d="M59.8987 213.689C59.4 222.548 55.8215 230.732 52.9175 238.974C49.9842 247.334 48.1363 255.958 47.491 264.787C47.4616 265.344 48.3416 265.344 48.3709 264.787C49.0456 255.665 51.0695 246.806 54.1202 238.212C56.9654 230.204 60.28 222.255 60.7787 213.689C60.808 213.132 59.928 213.132 59.8987 213.689Z" fill="#E8E8E8"/>
<path d="M47.4618 233.84C47.8724 237.859 48.9578 241.731 50.7471 245.368C51.0111 245.867 51.7444 245.427 51.5097 244.928C49.8084 241.437 48.7231 237.712 48.3418 233.87C48.2831 233.283 47.4031 233.283 47.4618 233.84Z" fill="#E8E8E8"/>
<path d="M54.3547 238.036C57.4053 236.188 59.9866 233.783 62.0399 230.879C62.3626 230.41 61.5999 229.97 61.2772 230.439C59.3119 233.226 56.8187 235.513 53.8854 237.273C53.4161 237.567 53.8561 238.329 54.3547 238.036Z" fill="#E8E8E8"/>
<path d="M38.6895 265.345C40.5668 268.835 41.7401 272.59 42.1801 276.521C42.2388 277.078 43.1187 277.078 43.0601 276.521C42.5908 272.443 41.3881 268.542 39.4522 264.905C39.1882 264.406 38.4255 264.846 38.6895 265.345Z" fill="#E8E8E8"/>
<path d="M46.0521 264.786C46.7854 268.394 47.1961 272.06 47.2547 275.756C47.2547 276.314 48.1347 276.314 48.1347 275.756C48.0761 271.972 47.6654 268.247 46.9027 264.551C46.7854 263.994 45.9348 264.228 46.0521 264.786Z" fill="#E8E8E8"/>
<path d="M340.728 239.973C340.376 241.146 339.819 242.408 339.643 243.64C339.555 244.138 339.525 244.607 339.848 245.018C340.259 245.517 340.963 245.575 341.549 245.663C342.869 245.898 344.189 246.103 345.509 246.279C350.261 246.925 355.072 247.189 359.853 247.277C364.81 247.365 369.768 247.218 374.754 247.042C376.045 246.983 377.511 247.13 378.743 246.895C379.095 246.837 379.477 246.837 379.711 246.514C380.239 245.839 379.506 245.253 378.831 245.605C378.685 245.693 378.567 245.927 378.626 246.103C378.655 246.133 378.655 246.191 378.685 246.221C378.89 246.749 379.741 246.514 379.535 245.986C379.506 245.957 379.506 245.898 379.477 245.869C379.418 246.045 379.33 246.191 379.271 246.367C379.095 246.25 378.919 246.133 378.743 246.015C378.45 246.015 378.186 246.045 377.893 246.045C377.423 246.074 376.954 246.074 376.455 246.103C375.605 246.133 374.725 246.162 373.874 246.191C372.143 246.25 370.442 246.309 368.712 246.338C365.074 246.426 361.466 246.455 357.829 246.338C354.309 246.25 350.789 246.015 347.299 245.605C345.451 245.399 343.603 245.135 341.755 244.813C340.552 244.607 340.405 244.079 340.728 242.936C340.992 242.026 341.285 241.088 341.549 240.178C341.725 239.65 340.875 239.416 340.728 239.973Z" fill="#E8E8E8"/>
<path d="M341.551 240.441C342.021 239.003 345.247 239.355 346.391 239.326C348.004 239.267 349.647 239.209 351.26 239.179C354.692 239.121 358.124 239.121 361.586 239.238C364.929 239.326 368.273 239.502 371.588 239.766C373.172 239.883 374.903 239.854 376.428 240.206C378.012 240.587 378.012 241.35 378.247 242.611C378.423 243.521 378.598 244.43 378.774 245.339C378.892 245.897 379.742 245.662 379.625 245.105C379.42 244.019 379.185 242.905 378.98 241.819C378.862 241.174 378.774 240.441 378.276 239.942C377.337 239.003 375.313 239.238 374.111 239.121C369.828 238.739 365.545 238.475 361.234 238.358C357.039 238.241 352.815 238.241 348.62 238.387C346.772 238.446 344.866 238.417 343.018 238.651C341.962 238.798 340.994 239.15 340.642 240.235C340.525 240.763 341.375 240.969 341.551 240.441Z" fill="#E8E8E8"/>
<path d="M342.4 245.311C343.69 252.41 344.6 259.567 345.157 266.753C345.186 267.017 345.333 267.164 345.597 267.193C354.221 267.985 362.874 268.191 371.498 267.809C372.055 267.78 372.055 266.9 371.498 266.929C362.845 267.311 354.192 267.105 345.597 266.313C345.744 266.46 345.89 266.607 346.037 266.753C345.48 259.479 344.57 252.263 343.25 245.076C343.133 244.519 342.282 244.754 342.4 245.311Z" fill="#E8E8E8"/>
<path d="M376.282 247.071C375.109 253.758 373.671 260.417 371.941 266.988C371.794 267.545 372.645 267.78 372.791 267.222C374.493 260.652 375.959 253.993 377.133 247.305C377.221 246.748 376.37 246.513 376.282 247.071Z" fill="#E8E8E8"/>
<path d="M322.631 192.54C324.567 197.79 325.975 203.187 326.885 208.673C326.914 208.819 327.061 208.937 327.178 208.966C328.116 209.23 329.055 209.494 329.964 209.758C329.876 209.582 329.759 209.406 329.671 209.23C329.143 211.635 328.908 214.246 331.167 215.771C331.9 216.27 332.663 216.563 332.839 217.531C332.956 218.235 332.898 218.939 333.044 219.643C333.338 221.139 333.954 222.576 334.834 223.808C336.799 226.536 339.879 227.71 342.636 229.44C345.687 231.376 348.063 234.163 349.647 237.389C349.881 237.888 350.644 237.448 350.409 236.949C349.119 234.309 347.3 231.933 345.012 230.085C342.49 228.032 339.234 226.976 336.858 224.776C335.596 223.632 334.687 222.107 334.159 220.494C333.895 219.672 333.748 218.822 333.719 217.971C333.69 217.502 333.778 217.12 333.572 216.71C333.074 215.595 331.636 215.272 330.874 214.392C329.73 213.072 330.17 211.019 330.492 209.465C330.551 209.23 330.434 208.995 330.199 208.937C329.612 208.761 328.439 208.673 327.97 208.321C327.383 207.881 327.412 206.707 327.295 206.003C327.002 204.449 326.65 202.923 326.269 201.369C325.506 198.289 324.567 195.297 323.482 192.334C323.306 191.777 322.455 192.012 322.631 192.54Z" fill="#E8E8E8"/>
<path d="M323.569 192.568C333.659 195.53 342.312 202.424 347.475 211.575C347.739 212.074 348.502 211.634 348.238 211.135C342.987 201.778 334.128 194.738 323.803 191.717C323.246 191.541 323.011 192.392 323.569 192.568Z" fill="#E8E8E8"/>
<path d="M346.422 210.316C351.848 218.383 355.486 227.505 357.128 237.097C357.216 237.655 358.067 237.42 357.979 236.863C356.336 227.212 352.64 218.002 347.184 209.876C346.862 209.407 346.099 209.847 346.422 210.316Z" fill="#E8E8E8"/>
<path d="M325.504 195.033C336.797 206.473 346.184 219.643 353.37 234.016C353.634 234.515 354.397 234.075 354.133 233.576C346.946 219.144 337.472 205.915 326.15 194.417C325.71 194.036 325.094 194.652 325.504 195.033Z" fill="#E8E8E8"/>
<path d="M327.587 205.301C335.067 209.819 341.638 215.685 346.947 222.637C347.299 223.077 348.062 222.637 347.71 222.197C342.312 215.098 335.654 209.115 328.027 204.539C327.558 204.245 327.118 205.008 327.587 205.301Z" fill="#E8E8E8"/>
<path d="M335.038 197.555C336.944 201.691 338.147 206.091 338.675 210.638C338.734 211.195 339.614 211.195 339.555 210.638C339.027 205.944 337.766 201.427 335.8 197.115C335.536 196.587 334.803 197.027 335.038 197.555Z" fill="#E8E8E8"/>
<path d="M355.514 225.481C354.692 205.946 373.26 193.45 381.708 177.757C381.444 177.669 381.151 177.61 380.887 177.522C380.887 179.986 380.857 182.45 380.857 184.914C380.857 186.058 380.857 187.202 380.828 188.317C380.828 189.49 381.268 193.479 378.921 192.746C378.569 192.629 378.217 193.069 378.423 193.391C379.655 195.269 379.948 197.586 379.156 199.727C378.775 200.754 378.364 201.135 378.247 202.25C378.129 203.482 378.012 204.743 377.895 205.975C377.66 208.468 377.396 210.932 377.161 213.425C376.927 215.772 376.956 218.353 376.281 220.612C375.636 222.841 373.788 224.103 371.852 225.188C370.151 226.185 368.449 227.153 366.895 228.356C363.962 230.673 361.703 233.929 361.791 237.772C361.791 238.329 362.671 238.329 362.671 237.772C362.554 232.668 366.66 229.236 370.679 226.86C372.292 225.892 374.052 225.071 375.401 223.721C376.721 222.401 377.22 220.788 377.455 218.969C378.1 213.865 378.452 208.732 378.951 203.628C379.068 202.426 379.273 201.516 379.772 200.431C380.095 199.698 380.3 198.906 380.417 198.114C380.623 196.266 380.183 194.477 379.156 192.922C378.98 193.127 378.833 193.362 378.657 193.567C381.532 194.506 381.649 190.663 381.649 188.874C381.679 185.09 381.679 181.306 381.708 177.493C381.708 177.053 381.092 176.877 380.887 177.258C372.351 193.098 353.724 205.652 354.575 225.423C354.634 226.039 355.514 226.039 355.514 225.481Z" fill="#E8E8E8"/>
<path d="M379.215 185.677C374.756 193.186 370.298 200.696 366.426 208.527C364.549 212.311 362.847 216.154 361.322 220.085C359.826 224.015 358.653 228.092 358.887 232.316C358.917 232.874 359.797 232.874 359.767 232.316C359.503 227.975 360.794 223.81 362.349 219.791C363.903 215.773 365.693 211.813 367.629 207.97C371.383 200.49 375.666 193.274 379.919 186.088C380.271 185.619 379.508 185.179 379.215 185.677Z" fill="#E8E8E8"/>
<path d="M361.996 207.412C361.292 210.492 361.145 213.602 361.585 216.711C361.673 217.268 362.524 217.034 362.436 216.476C362.025 213.514 362.172 210.551 362.846 207.647C362.964 207.09 362.113 206.855 361.996 207.412Z" fill="#E8E8E8"/>
<path d="M370.651 192.364C370.211 194.886 370.269 197.409 370.827 199.902C370.944 200.459 371.795 200.225 371.677 199.667C371.149 197.321 371.091 194.974 371.501 192.598C371.589 192.041 370.768 191.806 370.651 192.364Z" fill="#E8E8E8"/>
<path d="M378.451 213.25C383.233 207.619 387.339 201.488 390.712 194.918C390.448 194.888 390.184 194.859 389.92 194.8C391.504 200.285 391.182 205.947 389.979 211.461C389.392 214.13 388.63 216.77 387.809 219.381C387.427 220.584 387.017 221.786 386.606 223.018C386.166 224.338 385.755 226.216 384.142 226.509C383.937 226.538 383.819 226.744 383.819 226.92C383.761 228.416 383.673 230.029 382.998 231.407C382.147 233.167 380.446 233.637 378.686 234.135C376.046 234.869 373.347 235.631 371.5 237.773C371.118 238.183 371.764 238.829 372.116 238.389C373.406 236.893 375.107 236.13 376.955 235.543C378.51 235.045 380.27 234.839 381.707 234.018C384.23 232.61 384.553 229.501 384.67 226.92C384.553 227.066 384.465 227.213 384.347 227.33C386.635 226.949 387.163 224.016 387.779 222.197C388.835 219.088 389.832 215.949 390.566 212.752C391.974 206.768 392.472 200.52 390.742 194.536C390.654 194.184 390.126 194.096 389.95 194.419C386.635 200.931 382.587 207.003 377.835 212.576C377.454 213.075 378.07 213.69 378.451 213.25Z" fill="#E8E8E8"/>
<path d="M388.19 203.95C385.931 211.136 382.147 217.824 377.131 223.427C373.054 227.944 366.806 231.875 366.132 238.475C366.073 239.032 366.953 239.032 367.012 238.475C367.364 234.867 369.71 232.08 372.174 229.616C374.609 227.181 377.131 224.894 379.302 222.224C383.673 216.886 386.958 210.755 389.011 204.185C389.217 203.657 388.366 203.422 388.19 203.95Z" fill="#E8E8E8"/>
<path d="M288.898 57.7865C287.109 72.6289 281.653 86.8846 273.117 99.175C272.794 99.6443 273.557 100.084 273.88 99.615C282.504 87.2072 287.959 72.7755 289.778 57.7865C289.837 57.1998 288.957 57.2292 288.898 57.7865Z" fill="#E8E8E8"/>
<path d="M289.045 58.0195C301.951 59.6621 315.004 59.7208 327.911 58.2248C328.468 58.1662 328.468 57.2862 327.911 57.3449C315.004 58.8408 301.951 58.7822 289.045 57.1395C288.488 57.0809 288.488 57.9608 289.045 58.0195Z" fill="#E8E8E8"/>
<path d="M327.941 58.7526C331.255 74.2402 329.202 90.6079 322.221 104.834C321.957 105.333 322.719 105.773 322.983 105.274C330.082 90.8426 332.165 74.2696 328.791 58.5179C328.674 57.9606 327.823 58.1952 327.941 58.7526Z" fill="#E8E8E8"/>
<path d="M273.675 99.9664C289.192 105.716 305.97 105.452 322.279 105.129C322.836 105.129 322.836 104.249 322.279 104.249C306.058 104.572 289.368 104.836 273.909 99.1157C273.381 98.9104 273.147 99.761 273.675 99.9664Z" fill="#E8E8E8"/>
<path d="M330.345 76.7039C337.737 73.7119 345.539 71.776 353.488 71.0133C353.342 70.8667 353.195 70.72 353.048 70.5733C353.283 81.8958 357.888 92.8662 365.779 100.991C366.16 101.402 366.805 100.786 366.395 100.375C358.651 92.4262 354.163 81.6905 353.928 70.5733C353.928 70.3387 353.723 70.104 353.488 70.1334C345.451 70.9253 337.59 72.832 330.11 75.8532C329.582 76.0879 329.817 76.9385 330.345 76.7039Z" fill="#E8E8E8"/>
<path d="M314.301 105.745C315.474 109.763 316.735 113.782 318.231 117.683C319.434 120.822 320.989 123.872 323.599 126.072C324.039 126.424 324.655 125.808 324.215 125.456C321.487 123.139 319.962 119.912 318.759 116.598C317.439 112.961 316.266 109.265 315.151 105.539C314.975 104.982 314.154 105.217 314.301 105.745Z" fill="#E8E8E8"/>
<path d="M324.564 126.131C337.823 116.95 351.932 109.03 366.628 102.401C367.156 102.166 366.686 101.403 366.188 101.638C351.463 108.238 337.383 116.187 324.124 125.368C323.655 125.691 324.095 126.454 324.564 126.131Z" fill="#E8E8E8"/>
<path d="M291.686 61.834C302.539 63.1833 313.45 64.1512 324.362 64.7086C324.92 64.7379 324.92 63.8579 324.362 63.8286C313.421 63.2713 302.539 62.3033 291.686 60.954C291.128 60.8953 291.128 61.7753 291.686 61.834Z" fill="#E8E8E8"/>
<path d="M291.451 66.1743C292.947 67.0836 294.971 66.937 296.643 67.0543C299.048 67.2303 301.453 67.4063 303.858 67.5823C304.416 67.6116 304.416 66.7317 303.858 66.7023C301.834 66.5557 299.81 66.409 297.787 66.2623C295.968 66.1157 293.475 66.3797 291.891 65.4117C291.421 65.1183 290.981 65.881 291.451 66.1743Z" fill="#E8E8E8"/>
<path d="M289.924 70.5467C295.38 70.928 300.836 71.3094 306.262 71.6907C311.483 72.0427 316.91 72.864 322.131 72.336C322.689 72.2773 322.689 71.3974 322.131 71.456C316.91 71.984 311.483 71.192 306.262 70.8107C300.806 70.4294 295.35 70.0481 289.924 69.6667C289.367 69.6374 289.367 70.5174 289.924 70.5467Z" fill="#E8E8E8"/>
<path d="M288.957 77.9379C293.709 79.5219 298.725 79.6099 303.712 79.5512C309.197 79.5219 314.653 79.4632 320.138 79.4045C320.695 79.4045 320.695 78.5246 320.138 78.5246C314.829 78.5539 309.549 78.6126 304.24 78.6419C299.165 78.6712 294.061 78.6712 289.192 77.0579C288.635 76.9113 288.4 77.7619 288.957 77.9379Z" fill="#E8E8E8"/>
<path d="M282.914 91.2246C282.914 92.1633 282.826 93.1606 282.914 94.1286C282.973 94.5979 283.178 95.0672 283.735 95.0966C284.41 95.1259 284.938 94.3632 285.349 93.9526C286.023 93.2486 286.639 92.5153 287.255 91.782C287.607 91.342 286.991 90.726 286.639 91.166C285.906 92.1046 285.114 92.9846 284.263 93.8059C284.175 93.8939 284.087 93.9819 283.97 94.0699C283.794 94.2459 283.735 94.2166 283.794 93.9526C283.706 93.7472 283.794 93.3366 283.794 93.1313C283.794 92.4859 283.794 91.87 283.794 91.2246C283.794 90.6673 282.914 90.6673 282.914 91.2246Z" fill="#E8E8E8"/>
<path d="M290.012 84.4789C299.457 86.5029 309.137 87.2069 318.758 86.5909C319.315 86.5615 319.315 85.6816 318.758 85.7109C309.196 86.3269 299.604 85.6229 290.247 83.6283C289.689 83.5109 289.455 84.3616 290.012 84.4789Z" fill="#E8E8E8"/>
<path d="M324.773 115.455C336.594 111.143 347.887 105.511 358.417 98.618C358.886 98.2953 358.447 97.5326 357.977 97.8553C347.505 104.719 336.3 110.351 324.538 114.604C324.01 114.81 324.245 115.66 324.773 115.455Z" fill="#E8E8E8"/>
<path d="M322.045 109.968C330.844 107.416 339.439 104.307 347.857 100.699C348.385 100.464 347.916 99.7309 347.417 99.9362C339.087 103.544 330.522 106.595 321.81 109.117C321.282 109.293 321.487 110.144 322.045 109.968Z" fill="#E8E8E8"/>
<path d="M325.857 102.928C330.873 100.846 335.889 98.7337 340.905 96.6511C345.305 94.8031 349.822 93.1312 353.723 90.3152C354.163 89.9926 353.752 89.2299 353.283 89.5526C349.294 92.4272 344.63 94.1578 340.142 96.0351C335.302 98.0591 330.462 100.083 325.622 102.107C325.124 102.312 325.358 103.163 325.857 102.928Z" fill="#E8E8E8"/>
<path d="M329.935 93.9501C332.105 93.0408 334.305 92.1608 336.476 91.2515C337.004 91.0462 336.769 90.1955 336.241 90.4009C334.071 91.3102 331.871 92.1902 329.7 93.0995C329.172 93.3048 329.407 94.1555 329.935 93.9501Z" fill="#E8E8E8"/>
<path d="M331.137 82.5729C334.041 82.6609 336.974 81.2529 339.644 80.1969C342.43 79.0823 345.158 77.8503 347.828 76.501C348.326 76.237 347.886 75.4743 347.388 75.7383C344.777 77.0583 342.137 78.2609 339.409 79.3463C336.857 80.3729 333.953 81.7809 331.137 81.6929C330.551 81.6635 330.551 82.5435 331.137 82.5729Z" fill="#E8E8E8"/>
<path d="M294.707 104.923C291.393 115.16 285.849 124.576 278.545 132.496C278.281 132.789 278.457 133.229 278.868 133.258C292.419 133.698 304.974 139.389 317.03 145.138C317.528 145.373 317.997 144.61 317.47 144.375C305.267 138.567 292.595 132.848 278.868 132.378C278.985 132.642 279.073 132.877 279.19 133.141C286.611 125.133 292.214 115.571 295.587 105.187C295.734 104.629 294.883 104.395 294.707 104.923Z" fill="#E8E8E8"/>
<path d="M318.028 144.845C321.988 137.16 326.271 129.651 330.847 122.288C331.14 121.819 330.377 121.35 330.084 121.848C325.508 129.182 321.226 136.72 317.266 144.405C317.002 144.904 317.764 145.373 318.028 144.845Z" fill="#E8E8E8"/>
<path d="M316.737 134.694C317.294 134.694 317.294 133.814 316.737 133.814C316.15 133.814 316.15 134.694 316.737 134.694Z" fill="#E8E8E8"/>
<path d="M286.317 128.391C290.893 128.068 294.765 130.825 298.959 132.204C301.247 132.937 303.623 133.319 305.911 134.081C308.229 134.815 310.37 135.929 312.394 137.308C312.863 137.631 313.303 136.868 312.834 136.545C310.986 135.284 308.991 134.228 306.879 133.495C304.386 132.615 301.717 132.204 299.194 131.383C294.911 129.975 291.01 127.188 286.317 127.54C285.73 127.54 285.73 128.42 286.317 128.391Z" fill="#E8E8E8"/>
<path d="M290.951 124.636C297.815 126.395 304.386 129.123 310.458 132.761C310.956 133.054 311.396 132.291 310.898 131.998C304.767 128.302 298.138 125.545 291.186 123.785C290.629 123.668 290.394 124.489 290.951 124.636Z" fill="#E8E8E8"/>
<path d="M293.182 119.502C296.233 120.148 299.049 121.38 301.63 123.14C302.099 123.462 302.539 122.7 302.07 122.377C299.43 120.588 296.526 119.326 293.417 118.652C292.859 118.534 292.625 119.385 293.182 119.502Z" fill="#E8E8E8"/>
<path d="M294.999 114.806C299.957 116.654 304.855 118.619 309.724 120.702C310.252 120.937 310.692 120.174 310.164 119.939C305.236 117.827 300.25 115.803 295.234 113.955C294.677 113.779 294.471 114.63 294.999 114.806Z" fill="#E8E8E8"/>
<path d="M45.5265 69.4317C45.0571 76.4129 44.9398 83.4527 42.7105 90.1699C40.6279 96.4178 37.1373 102.138 32.5614 106.86C32.1801 107.271 32.7961 107.887 33.1774 107.476C37.7533 102.754 41.2732 97.0631 43.4145 90.8446C45.7905 83.9514 45.9078 76.6475 46.4065 69.4317C46.4358 68.8743 45.5558 68.8743 45.5265 69.4317Z" fill="#E8E8E8"/>
<path d="M46.1406 69.6937C57.6391 69.5471 69.1669 69.5764 80.6653 69.8111C83.5986 69.8697 86.5318 69.9577 89.4358 70.0457C90.9318 70.1044 93.2197 69.6644 94.0117 71.2484C94.569 72.363 94.5397 74.1523 94.7157 75.3843C95.4783 80.7815 95.625 86.2667 95.2143 91.6933C94.745 97.8532 93.513 103.925 91.6064 109.792C91.4304 110.32 92.2811 110.554 92.4571 110.026C96.0357 99.0265 97.1796 87.2934 95.6543 75.8243C95.5077 74.6216 95.3023 73.419 95.097 72.2457C94.9503 71.395 94.8623 70.3097 94.0997 69.7524C93.3664 69.1951 92.3397 69.2831 91.4891 69.2538C89.8171 69.1951 88.1745 69.1364 86.5025 69.1071C80.1666 68.9311 73.8308 68.8138 67.4949 68.7844C60.367 68.7258 53.2392 68.7551 46.1406 68.8431C45.5833 68.8431 45.5833 69.7231 46.1406 69.6937Z" fill="#E8E8E8"/>
<path d="M32.764 107.942C47.665 112.108 63.4167 112.548 78.5524 109.292C79.1097 109.174 78.8751 108.324 78.3177 108.441C63.358 111.697 47.753 111.228 32.9986 107.092C32.4413 106.945 32.2067 107.766 32.764 107.942Z" fill="#E8E8E8"/>
<path d="M92.458 71.8067C91.7833 84.6251 88.2634 97.1502 82.1622 108.414C81.8982 108.913 82.6608 109.353 82.9248 108.854C89.0847 97.4435 92.6633 84.7717 93.3379 71.8067C93.3673 71.2493 92.4873 71.2493 92.458 71.8067Z" fill="#E8E8E8"/>
<path d="M92.4569 74.2408C93.2782 78.1421 92.9262 82.0727 92.2516 85.9446C91.6649 89.3179 90.9903 92.6911 90.2276 96.0644C88.7317 102.664 86.7077 109.176 82.8358 114.779C82.5131 115.248 83.2758 115.688 83.5984 115.219C87.617 109.411 89.6703 102.635 91.1956 95.8004C92.7502 88.8192 94.8329 81.1634 93.3076 74.0062C93.1902 73.4489 92.3396 73.6835 92.4569 74.2408Z" fill="#E8E8E8"/>
<path d="M93.1039 77.0567C94.1306 90.3737 91.96 103.779 86.7681 116.099C86.5627 116.627 87.4134 116.861 87.6187 116.333C92.8106 103.955 95.0106 90.4617 93.9839 77.0567C93.9546 76.4993 93.0746 76.4993 93.1039 77.0567Z" fill="#E8E8E8"/>
<path d="M38.3675 115.219C53.0632 117.741 68.0816 117.653 82.748 114.984C83.3053 114.896 83.0706 114.045 82.5133 114.133C68.0229 116.773 53.1219 116.861 38.6022 114.368C38.0448 114.28 37.8102 115.131 38.3675 115.219Z" fill="#E8E8E8"/>
<path d="M40.3034 110.233C39.6288 111.348 38.7488 112.286 37.6928 113.049C37.2235 113.372 37.6635 114.134 38.1328 113.812C39.3061 112.961 40.3034 111.934 41.0368 110.702C41.3594 110.204 40.5968 109.764 40.3034 110.233Z" fill="#E8E8E8"/>
<path d="M42.3568 116.656C41.9754 117.389 41.5354 118.093 41.0074 118.739C40.6555 119.179 41.2714 119.795 41.6234 119.355C42.2101 118.651 42.7087 117.917 43.0901 117.096C43.3541 116.598 42.6207 116.128 42.3568 116.656Z" fill="#E8E8E8"/>
<path d="M41.5078 119.941C56.2622 121.672 71.2512 120.733 85.683 117.155C86.2403 117.008 86.0056 116.157 85.4483 116.304C71.1046 119.853 56.2035 120.763 41.5078 119.032C40.9505 119.003 40.9505 119.883 41.5078 119.941Z" fill="#E8E8E8"/>
<path d="M48.692 81.2218C61.3638 79.4912 74.1528 80.3125 86.8539 81.1925C87.4112 81.2218 87.4112 80.3418 86.8539 80.3125C74.0648 79.4325 61.2171 78.6112 48.4573 80.3711C47.9 80.4298 48.1347 81.2805 48.692 81.2218Z" fill="#E8E8E8"/>
<path d="M45.0533 94.3644C56.933 94.5404 68.7835 95.0977 80.6046 96.0363C81.1619 96.095 81.1619 95.215 80.6046 95.1563C68.7835 94.1884 56.933 93.631 45.0533 93.4844C44.4666 93.4844 44.4666 94.3644 45.0533 94.3644Z" fill="#E8E8E8"/>
<path d="M41.5078 101.17C54.6489 101.786 67.79 102.431 80.9311 103.047C81.4884 103.076 81.4884 102.196 80.9311 102.167C67.79 101.551 54.6489 100.906 41.5078 100.29C40.9505 100.26 40.9505 101.14 41.5078 101.17Z" fill="#E8E8E8"/>
<path d="M52.3568 89.2002C49.8635 95.1254 47.4875 101.08 45.2876 107.123C45.0823 107.651 45.9329 107.885 46.1382 107.357C48.3382 101.403 50.6555 95.5068 53.1194 89.6695C53.3248 89.1416 52.5621 88.6722 52.3568 89.2002Z" fill="#E8E8E8"/>
<path d="M62.3044 90.2272C59.4004 96.0937 56.9951 102.136 54.9125 108.296C54.7365 108.824 55.5872 109.059 55.7632 108.531C57.8164 102.43 60.1924 96.4457 63.067 90.6672C63.331 90.1685 62.5684 89.7285 62.3044 90.2272Z" fill="#E8E8E8"/>
<path d="M73.4498 90.9311C70.1059 96.3577 67.6126 102.254 66.0579 108.443C65.9113 109 66.7619 109.235 66.9086 108.677C68.4339 102.547 70.8978 96.739 74.2124 91.3711C74.5058 90.9018 73.7431 90.4618 73.4498 90.9311Z" fill="#E8E8E8"/>
<path d="M82.2492 91.3415C79.492 96.6801 77.1453 102.224 75.2094 107.944C75.0334 108.472 75.884 108.707 76.06 108.179C77.9667 102.547 80.2839 97.0907 83.0119 91.8109C83.2466 91.2829 82.5132 90.8429 82.2492 91.3415Z" fill="#E8E8E8"/>
<path d="M43.8243 96.5036C45.1149 97.0902 46.2002 97.8822 47.1682 98.9089C47.5495 99.3195 48.1655 98.7035 47.7842 98.2929C46.7869 97.2076 45.6136 96.3569 44.2643 95.7409C43.7363 95.5356 43.2963 96.2689 43.8243 96.5036Z" fill="#E8E8E8"/>
<path d="M47.8142 95.0093C45.9369 96.124 44.2943 97.532 42.9156 99.2039C42.5637 99.6439 43.1796 100.26 43.5316 99.8199C44.8809 98.1773 46.4356 96.828 48.2542 95.772C48.7529 95.4787 48.3129 94.716 47.8142 95.0093Z" fill="#E8E8E8"/>
<path d="M59.5737 104.217C61.2163 105.185 62.6243 106.388 63.8563 107.825C64.2083 108.265 64.8536 107.62 64.4723 107.209C63.211 105.713 61.715 104.452 60.0137 103.455C59.5444 103.161 59.1044 103.924 59.5737 104.217Z" fill="#E8E8E8"/>
<path d="M64.5619 102.988C62.6846 104.396 60.954 105.98 59.37 107.711C58.9887 108.121 59.6046 108.767 59.986 108.327C61.5113 106.626 63.1832 105.1 65.0019 103.722C65.4419 103.428 65.0019 102.666 64.5619 102.988Z" fill="#E8E8E8"/>
<path d="M51.3913 95.185C52.9166 96.593 54.4419 97.9716 55.9672 99.3796C56.3779 99.7609 56.9938 99.1449 56.5832 98.7636C55.0579 97.3556 53.5326 95.977 52.0073 94.569C51.5966 94.1584 50.9806 94.7744 51.3913 95.185Z" fill="#E8E8E8"/>
<path d="M56.4068 94.482C54.2655 95.714 52.3882 97.2979 50.8629 99.2339C50.5109 99.6739 51.1269 100.29 51.4789 99.8499C52.9749 97.9726 54.7642 96.4473 56.8468 95.2446C57.3455 94.9513 56.8761 94.1887 56.4068 94.482Z" fill="#E8E8E8"/>
<path d="M62.4777 101.051C60.3658 99.9068 60.0724 97.0615 62.0964 95.5949C63.6217 94.5096 66.731 93.6002 67.9043 95.5949C68.9309 97.3842 67.6989 99.5548 66.2323 100.64C63.9443 102.312 62.331 100.464 61.2751 98.5575C61.0111 98.0588 60.2484 98.4988 60.5124 98.9975C61.8617 101.432 64.0323 103.339 66.731 101.373C68.7256 99.9361 70.1042 96.8855 68.4029 94.7149C66.643 92.4856 62.6244 93.6589 60.9231 95.4189C59.0164 97.4135 59.7204 100.493 62.0377 101.755C62.5364 102.077 62.9764 101.315 62.4777 101.051Z" fill="#E8E8E8"/>
<path d="M50.0412 71.7488C49.4839 73.7727 49.3079 75.826 49.6012 77.938C49.6599 78.4953 50.5692 78.4953 50.4812 77.938C50.2172 75.914 50.3346 73.9487 50.8919 71.9834C51.0386 71.4555 50.1879 71.2208 50.0412 71.7488Z" fill="#E8E8E8"/>
<path d="M50.5977 72.274C61.6268 71.042 72.7439 70.7487 83.8317 71.4233C83.685 71.2767 83.5384 71.13 83.3917 70.9834C83.5384 72.714 83.509 74.4153 83.2157 76.1166C83.1277 76.6739 83.9783 76.9086 84.0663 76.3512C84.3597 74.562 84.4477 72.802 84.2717 70.9834C84.2423 70.7487 84.0957 70.5727 83.8317 70.5434C72.7439 69.8687 61.6268 70.162 50.5977 71.394C50.0404 71.4527 50.0404 72.3327 50.5977 72.274Z" fill="#E8E8E8"/>
<path d="M51.4492 77.6445C62.009 77.4099 72.5688 77.1752 83.1286 76.9405C83.6859 76.9405 83.6859 76.0605 83.1286 76.0605C72.5688 76.2952 62.009 76.5299 51.4492 76.7645C50.8919 76.7939 50.8919 77.6738 51.4492 77.6445Z" fill="#E8E8E8"/>
<path d="M228.385 250.943C244.87 250.943 261.326 250.943 277.811 250.943C279.512 250.943 279.512 248.303 277.811 248.303C261.326 248.303 244.87 248.303 228.385 248.303C226.684 248.303 226.684 250.943 228.385 250.943Z" fill="#161616"/>
<path d="M283.794 250.943C287.343 250.943 290.863 250.943 294.412 250.943C296.113 250.943 296.113 248.303 294.412 248.303C290.863 248.303 287.343 248.303 283.794 248.303C282.092 248.303 282.092 250.943 283.794 250.943Z" fill="#161616"/>
<path d="M305.061 249.093C307.202 249.093 309.373 249.093 311.514 249.093C313.216 249.093 313.216 246.453 311.514 246.453C309.373 246.453 307.202 246.453 305.061 246.453C303.36 246.453 303.36 249.093 305.061 249.093Z" fill="#161616"/>
<path d="M284.262 273.117C303.974 273.117 323.686 273.117 343.397 273.117C345.098 273.117 345.098 270.477 343.397 270.477C323.686 270.477 303.974 270.477 284.262 270.477C282.561 270.477 282.561 273.117 284.262 273.117Z" fill="#161616"/>
<path d="M347.094 273.117C352.022 273.117 356.95 273.117 361.878 273.117C363.579 273.117 363.579 270.477 361.878 270.477C356.95 270.477 352.022 270.477 347.094 270.477C345.393 270.477 345.393 273.117 347.094 273.117Z" fill="#161616"/>
<path d="M371.12 272.679C378.365 272.679 385.581 272.679 392.826 272.679C394.527 272.679 394.527 270.039 392.826 270.039C385.581 270.039 378.365 270.039 371.12 270.039C369.418 270.039 369.418 272.679 371.12 272.679Z" fill="#161616"/>
<path d="M401.594 271.271C403.12 271.271 404.674 271.271 406.2 271.271C407.901 271.271 407.901 268.631 406.2 268.631C404.674 268.631 403.12 268.631 401.594 268.631C399.893 268.631 399.893 271.271 401.594 271.271Z" fill="#161616"/>
<path d="M0.439991 278.747C24.1995 278.16 47.959 277.72 71.7186 277.456C78.5238 277.368 85.3583 277.31 92.1635 277.251C92.7208 277.251 92.7208 276.371 92.1635 276.371C68.404 276.547 44.6444 276.899 20.8849 277.398C14.0797 277.544 7.24519 277.691 0.439991 277.867C-0.146664 277.896 -0.146664 278.776 0.439991 278.747Z" fill="#161616"/>
<path d="M64.5904 283.647C82.6007 282.885 100.64 283.002 118.621 283.999C119.179 284.029 119.179 283.149 118.621 283.119C100.64 282.122 82.6007 282.005 64.5904 282.767C64.0037 282.797 64.0037 283.677 64.5904 283.647Z" fill="#161616"/>
<path d="M349.353 247.012C348.209 249.711 346.713 252.204 344.865 254.492C344.513 254.932 345.129 255.548 345.481 255.108C347.446 252.703 349.001 250.092 350.203 247.247C350.409 246.719 349.558 246.484 349.353 247.012Z" fill="#E8E8E8"/>
<path d="M354.897 246.366C352.58 251.499 349.265 256.104 345.13 259.947C344.719 260.328 345.335 260.944 345.746 260.563C349.94 256.691 353.284 252.027 355.66 246.806C355.895 246.307 355.132 245.867 354.897 246.366Z" fill="#E8E8E8"/>
<path d="M360.647 246.66C356.98 254.11 351.73 260.622 345.188 265.755C344.748 266.107 345.364 266.723 345.804 266.371C352.375 261.179 357.684 254.58 361.38 247.07C361.644 246.601 360.881 246.161 360.647 246.66Z" fill="#E8E8E8"/>
<path d="M366.013 246.895C362.024 254.14 357.067 260.74 351.2 266.577C350.79 266.988 351.435 267.604 351.816 267.193C357.712 261.327 362.757 254.639 366.747 247.335C367.069 246.836 366.307 246.396 366.013 246.895Z" fill="#E8E8E8"/>
<path d="M370.794 246.688C366.98 254.08 362.258 260.944 356.655 267.104C356.274 267.514 356.89 268.16 357.271 267.72C362.903 261.501 367.714 254.608 371.556 247.128C371.82 246.629 371.058 246.189 370.794 246.688Z" fill="#E8E8E8"/>
<path d="M374.666 246.718C371.175 254.168 366.629 261.091 361.143 267.221C360.762 267.632 361.378 268.277 361.759 267.837C367.303 261.619 371.909 254.667 375.428 247.128C375.692 246.659 374.93 246.19 374.666 246.718Z" fill="#E8E8E8"/>
<path d="M375.135 252.407C372.407 257.863 369.063 262.967 365.162 267.66C364.81 268.1 365.426 268.716 365.778 268.276C369.738 263.524 373.14 258.361 375.898 252.847C376.162 252.348 375.399 251.908 375.135 252.407Z" fill="#E8E8E8"/>
<path d="M118.826 0.439991C118.826 5.42656 118.826 10.4131 118.826 15.3704C118.826 15.9277 119.706 15.9277 119.706 15.3704C119.706 10.3838 119.706 5.39723 119.706 0.439991C119.706 -0.146664 118.826 -0.146664 118.826 0.439991Z" fill="#E8E8E8"/>
<path d="M102.811 16.1925C117.507 16.1925 132.173 16.1925 146.869 16.1925C147.426 16.1925 147.426 15.3125 146.869 15.3125C132.173 15.3125 117.507 15.3125 102.811 15.3125C102.224 15.3125 102.224 16.1925 102.811 16.1925Z" fill="#E8E8E8"/>
<path d="M133.787 17.2774C133.787 21.8826 133.787 26.4585 133.787 31.0638C133.787 31.6211 134.667 31.6211 134.667 31.0638C134.667 26.4585 134.667 21.8826 134.667 17.2774C134.667 16.72 133.787 16.72 133.787 17.2774Z" fill="#E8E8E8"/>
<path d="M110.848 32.6769C125.162 32.6769 139.447 32.6769 153.761 32.6769C154.319 32.6769 154.319 31.7969 153.761 31.7969C139.447 31.7969 125.162 31.7969 110.848 31.7969C110.29 31.7969 110.29 32.6769 110.848 32.6769Z" fill="#E8E8E8"/>
<path d="M110.025 32.9994C110.025 36.4606 110.025 39.8926 110.025 43.3538C110.025 43.9112 110.905 43.9112 110.905 43.3538C110.905 39.8926 110.905 36.4606 110.905 32.9994C110.905 32.4421 110.025 32.4127 110.025 32.9994Z" fill="#E8E8E8"/>
<path d="M322.864 155.142C331.752 155.142 340.61 155.142 349.498 155.142C350.055 155.142 350.055 154.262 349.498 154.262C340.61 154.262 331.752 154.262 322.864 154.262C322.277 154.262 322.277 155.142 322.864 155.142Z" fill="#E8E8E8"/>
<path d="M336.945 155.494C336.945 158.985 336.945 162.475 336.945 165.995C336.945 166.553 337.825 166.553 337.825 165.995C337.825 162.505 337.825 159.014 337.825 155.494C337.825 154.937 336.945 154.937 336.945 155.494Z" fill="#E8E8E8"/>
<path d="M320.842 166.435C331.079 166.435 341.287 166.435 351.524 166.435C352.081 166.435 352.081 165.555 351.524 165.555C341.287 165.555 331.079 165.555 320.842 165.555C320.284 165.555 320.284 166.435 320.842 166.435Z" fill="#E8E8E8"/>
<path d="M328.879 166.405C328.879 169.367 328.879 172.33 328.879 175.293C328.879 175.85 329.759 175.85 329.759 175.293C329.759 172.33 329.759 169.367 329.759 166.405C329.759 165.818 328.879 165.818 328.879 166.405Z" fill="#E8E8E8"/>
<path d="M348.236 166.785C348.236 169.748 348.236 172.71 348.236 175.673C348.236 176.23 349.116 176.23 349.116 175.673C349.116 172.71 349.116 169.748 349.116 166.785C349.116 166.228 348.236 166.228 348.236 166.785Z" fill="#E8E8E8"/>
<path d="M61.774 251.294C75.091 251.294 88.4081 251.294 101.725 251.294C102.283 251.294 102.283 250.414 101.725 250.414C88.4081 250.414 75.091 250.414 61.774 250.414C61.1873 250.414 61.1873 251.294 61.774 251.294Z" fill="#E8E8E8"/>
<path d="M0.439991 251.851C8.82916 251.851 17.2183 251.851 25.6075 251.851C26.1648 251.851 26.1648 250.971 25.6075 250.971C17.2183 250.971 8.82916 250.971 0.439991 250.971C-0.146664 250.971 -0.146664 251.851 0.439991 251.851Z" fill="#E8E8E8"/>
<path d="M53.3853 182.216C66.7024 182.216 80.0194 182.216 93.3365 182.216C93.8938 182.216 93.8938 181.336 93.3365 181.336C80.0194 181.336 66.7024 181.336 53.3853 181.336C52.7986 181.336 52.7986 182.216 53.3853 182.216Z" fill="#E8E8E8"/>
<path d="M75.709 182.566C75.709 185.617 75.709 188.697 75.709 191.748C75.709 192.305 76.589 192.305 76.589 191.748C76.589 188.697 76.589 185.617 76.589 182.566C76.589 182.009 75.709 182.009 75.709 182.566Z" fill="#E8E8E8"/>
<path d="M68.1685 192.187C78.5523 192.187 88.9361 192.187 99.3199 192.187C99.8772 192.187 99.8772 191.307 99.3199 191.307C88.9361 191.307 78.5523 191.307 68.1685 191.307C67.5819 191.307 67.5819 192.187 68.1685 192.187Z" fill="#E8E8E8"/>
<path d="M91.6953 192.539C91.6953 195.854 91.6953 199.198 91.6953 202.512C91.6953 203.07 92.5753 203.07 92.5753 202.512C92.5753 199.198 92.5753 195.854 92.5753 192.539C92.5753 191.982 91.6953 191.982 91.6953 192.539Z" fill="#E8E8E8"/>
<path d="M307.204 254.435C318.497 254.435 329.761 254.435 341.054 254.435C341.611 254.435 341.611 253.555 341.054 253.555C329.761 253.555 318.497 253.555 307.204 253.555C306.617 253.555 306.617 254.435 307.204 254.435Z" fill="#E8E8E8"/>
<path d="M379.654 251.235C391.651 251.235 403.619 251.235 415.616 251.235C416.174 251.235 416.174 250.355 415.616 250.355C403.619 250.355 391.651 250.355 379.654 250.355C379.097 250.355 379.097 251.235 379.654 251.235Z" fill="#E8E8E8"/>
<path d="M264.436 167.784C264.436 173.416 264.436 179.077 264.436 184.709C264.436 185.266 265.316 185.266 265.316 184.709C265.316 179.077 265.316 173.416 265.316 167.784C265.316 167.197 264.436 167.197 264.436 167.784Z" fill="#E8E8E8"/>
<path d="M265.402 176.142C270.682 176.142 275.991 176.142 281.271 176.142C281.829 176.142 281.829 175.262 281.271 175.262C275.991 175.262 270.682 175.262 265.402 175.262C264.845 175.262 264.845 176.142 265.402 176.142Z" fill="#E8E8E8"/>
<path d="M280.305 169.895C280.305 175.175 280.305 180.484 280.305 185.764C280.305 186.321 281.185 186.321 281.185 185.764C281.185 180.484 281.185 175.175 281.185 169.895C281.185 169.308 280.305 169.308 280.305 169.895Z" fill="#E8E8E8"/>
<path d="M270.184 187.259C278.456 187.259 286.757 187.259 295.029 187.259C295.586 187.259 295.586 186.379 295.029 186.379C286.757 186.379 278.456 186.379 270.184 186.379C269.597 186.379 269.597 187.259 270.184 187.259Z" fill="#E8E8E8"/>
<path d="M287.197 188.403C287.197 192.451 287.197 196.499 287.197 200.576C287.197 201.133 288.077 201.133 288.077 200.576C288.077 196.528 288.077 192.48 288.077 188.403C288.077 187.816 287.197 187.816 287.197 188.403Z" fill="#E8E8E8"/>
<path d="M220.26 22.7617C220.26 31.9429 220.26 41.124 220.26 50.3052C220.26 50.8625 221.14 50.8625 221.14 50.3052C221.14 41.124 221.14 31.9429 221.14 22.7617C221.14 22.2044 220.26 22.2044 220.26 22.7617Z" fill="#E8E8E8"/>
<path d="M221.168 22.7022C235.6 22.7022 250.031 22.7022 264.434 22.7022C264.991 22.7022 264.991 21.8223 264.434 21.8223C250.002 21.8223 235.57 21.8223 221.168 21.8223C220.611 21.8223 220.611 22.7022 221.168 22.7022Z" fill="#E8E8E8"/>
<path d="M264.053 22.6153C264.053 31.7084 264.053 40.8016 264.053 49.8654C264.053 50.4227 264.933 50.4227 264.933 49.8654C264.933 40.7722 264.933 31.6791 264.933 22.6153C264.933 22.0579 264.053 22.0579 264.053 22.6153Z" fill="#E8E8E8"/>
<path d="M221.08 51.0382C235.658 51.0382 250.266 51.0382 264.845 51.0382C265.402 51.0382 265.402 50.1582 264.845 50.1582C250.266 50.1582 235.658 50.1582 221.08 50.1582C220.523 50.1582 220.523 51.0382 221.08 51.0382Z" fill="#E8E8E8"/>
<path d="M239.885 21.794C239.739 21.002 239.709 20.2101 239.856 19.4181C240.003 18.7141 240.355 17.3061 241.176 18.1861C241.587 18.6261 241.616 19.5941 241.733 20.1514C241.88 20.8847 242.027 21.6474 242.173 22.3807C242.291 22.938 243.141 22.7033 243.024 22.146C242.76 20.8554 242.643 19.4181 242.144 18.1861C241.88 17.5408 241.381 16.7781 240.589 16.8075C239.709 16.8368 239.357 17.7754 239.152 18.5088C238.8 19.6527 238.8 20.826 239.035 21.97C239.123 22.586 239.973 22.3514 239.885 21.794Z" fill="#E8E8E8"/>
<path d="M222.812 25.9302C222.812 33.0581 222.812 40.1859 222.812 47.3138C222.812 47.8711 223.692 47.8711 223.692 47.3138C223.692 40.1859 223.692 33.0581 223.692 25.9302C223.692 25.3436 222.812 25.3436 222.812 25.9302Z" fill="#E8E8E8"/>
<path d="M223.486 25.8702C236.158 25.8702 248.83 25.8702 261.472 25.8702C262.03 25.8702 262.03 24.9902 261.472 24.9902C248.801 24.9902 236.129 24.9902 223.486 24.9902C222.929 24.9902 222.929 25.8702 223.486 25.8702Z" fill="#E8E8E8"/>
<path d="M261.529 25.1953C261.529 32.7925 261.529 40.3897 261.529 47.9869C261.529 48.5442 262.409 48.5442 262.409 47.9869C262.409 40.3897 262.409 32.7925 262.409 25.1953C262.409 24.638 261.529 24.638 261.529 25.1953Z" fill="#E8E8E8"/>
<path d="M223.957 47.9581C236.541 47.9581 249.125 47.9581 261.708 47.9581C262.266 47.9581 262.266 47.0781 261.708 47.0781C249.125 47.0781 236.541 47.0781 223.957 47.0781C223.4 47.0781 223.4 47.9581 223.957 47.9581Z" fill="#E8E8E8"/>
<path d="M223.455 40.3028C229.205 38.7482 234.954 37.3989 240.85 39.0708C245.719 40.4788 250.177 43.0894 255.223 43.9401C255.78 44.0281 256.015 43.1774 255.457 43.0894C250.089 42.1801 245.396 39.2762 240.146 37.9855C234.426 36.5775 228.765 37.9562 223.25 39.4521C222.663 39.5988 222.898 40.4495 223.455 40.3028Z" fill="#E8E8E8"/>
<path d="M243.637 40.2464C249.063 39.6304 254.461 37.4891 259.946 38.6331C260.503 38.7504 260.738 37.8998 260.18 37.7824C254.578 36.6091 249.151 38.7211 243.637 39.3371C243.079 39.4251 243.079 40.3344 243.637 40.2464Z" fill="#E8E8E8"/>
<path d="M244.577 33.9974C243.902 33.3521 243.844 32.2081 244.548 31.5628C245.31 30.8295 246.689 31.0348 247.276 31.8854C247.892 32.7361 247.745 34.0267 246.953 34.7014C245.985 35.5227 244.694 34.8774 244.02 34.0267C243.697 33.5867 242.905 34.0267 243.257 34.4667C244.196 35.728 245.926 36.5493 247.334 35.5227C248.654 34.5547 248.86 32.5308 247.862 31.2694C246.982 30.1548 245.164 29.9201 244.049 30.8295C242.876 31.7681 242.846 33.6454 243.932 34.672C244.372 34.9947 244.988 34.3787 244.577 33.9974Z" fill="#E8E8E8"/>
<path d="M279.513 229.705C280.451 227.769 282.006 225.393 284.529 224.689C288.401 223.604 291.158 227.476 296.936 230.292C307.379 235.395 316.472 231.582 317.323 234.427C317.997 236.686 312.571 240.353 309.051 242.113C301.982 245.633 288.635 248.478 282.475 240.939C281.566 239.825 279.043 236.334 279.513 229.705Z" fill="#161616" stroke="#161616" stroke-width="3"/>
<path d="M271.534 233.517C270.272 232.314 269.715 230.789 269.48 229.675C271.68 222.312 276.256 216.709 281.595 216.093C285.027 215.712 288.4 217.413 291.04 218.763C295.352 220.933 295.44 222.371 299.605 224.952C306.616 229.323 311.602 228.531 312.013 230.848C312.394 233.018 308.464 236.01 304.621 237.36C296.907 240.058 294.472 234.456 282.475 234.984C278.222 235.189 274.262 236.098 271.534 233.517Z" fill="#161616" stroke="#161616" stroke-width="3"/>
<path d="M218.616 185.646C219.203 189.283 220.112 195.179 221.051 202.454C224.63 229.792 223.192 233.781 227.475 239.472C237.36 252.613 259.389 250.384 261.12 250.178C273.674 248.741 282.18 242.141 285.583 239.178C283.647 235.805 281.711 232.461 279.775 229.088C270.095 229.176 260.416 229.293 250.706 229.381C252.789 221.872 255.224 209.259 253.141 193.918C251.557 182.185 247.92 172.916 244.869 166.697C236.891 167.284 227.68 168.604 217.648 171.273C212.808 172.564 208.321 174.03 204.185 175.556C203.979 181.1 203.715 188.99 203.569 198.494C203.07 234.456 205.123 241.848 210.286 245.602C212.808 247.421 217.208 247.568 225.891 247.744C240.997 248.066 253.786 244.106 268.717 239.472C272.09 238.416 274.818 237.507 276.49 236.949C275.639 230.232 274.759 223.544 273.909 216.827C267.954 218.44 261.736 219.966 255.282 221.432C249.093 222.811 243.08 224.043 237.243 225.099" fill="#5222D0"/>
<path d="M215.419 190.281C218.469 191.425 218.997 195.267 219.291 198.083C219.701 201.867 219.936 205.651 220.171 209.464C220.64 216.886 221.139 224.336 222.987 231.552C223.133 232.109 223.984 231.875 223.837 231.317C221.725 223.075 221.403 214.568 220.845 206.15C220.611 202.542 220.523 198.817 219.76 195.267C219.232 192.803 218.147 190.398 215.653 189.459C215.125 189.254 214.891 190.105 215.419 190.281Z" fill="#281472"/>
<path d="M229.353 241.028C231.611 242.993 233.811 245.281 236.334 246.953C238.768 248.566 241.702 249.153 244.547 249.681C245.104 249.798 245.339 248.947 244.782 248.83C242.024 248.302 239.179 247.774 236.774 246.19C234.339 244.577 232.198 242.348 229.969 240.412C229.558 240.03 228.913 240.676 229.353 241.028Z" fill="#281472"/>
<path d="M251.204 226.359C254.401 226.418 257.51 227.005 260.502 228.09C261.03 228.295 261.265 227.445 260.737 227.239C257.657 226.125 254.46 225.538 251.204 225.479C250.617 225.45 250.617 226.33 251.204 226.359Z" fill="#281472"/>
<path opacity="0.58" d="M203.979 195.649C204.155 192.921 206.032 190.486 208.555 189.372C211.194 188.228 214.48 188.99 216.504 190.604C220.024 193.361 219.73 198.553 219.877 204.83C220.141 216.299 220.464 230.056 227.21 239.237C228.765 241.349 231.581 244.488 236.685 247.187C234.045 248.448 229.322 250.267 223.368 249.944C220.786 249.797 213.834 249.357 208.848 244.283C206.413 241.819 204.301 238.064 203.656 219.966C203.451 213.777 203.392 205.475 203.979 195.649Z" fill="#474747"/>
<path opacity="0.59" d="M251.968 222.401C259.272 220.524 266.576 218.647 273.879 216.77C274.319 220.817 274.73 224.895 275.17 228.943C271.855 228.033 268.101 227.183 264.024 226.508C259.301 225.745 254.96 225.364 251.088 225.217C251.381 224.279 251.675 223.34 251.968 222.401Z" fill="#474747"/>
<path d="M206.004 102.901C205.916 100.848 206.15 98.5891 207.5 97.8264C212.34 95.1278 230.027 112.522 238.71 131.794C242.112 139.362 246.278 152.004 245.368 169.34C231.934 171.804 218.529 174.297 205.095 176.761C202.807 172.918 198.935 167.081 192.98 160.921C187.026 154.761 184.767 154.292 182.215 149.804C176.759 140.183 179.692 129.242 180.426 126.485C181.394 122.906 183.506 115.221 190.839 109.266C196.735 104.456 203.071 103.253 206.004 102.901Z" fill="white" stroke="#161616" stroke-width="3"/>
<path opacity="0.36" d="M205.506 107.596C208.996 110.001 221.17 118.947 226.097 136.048C231.465 154.763 224.337 170.045 222.578 173.536C230.263 172.245 237.977 170.984 245.662 169.693C246.132 162.243 245.956 149.101 240.148 134.23C232.873 115.633 220.671 104.516 214.628 99.6758C211.578 102.316 208.556 104.956 205.506 107.596Z" fill="#828181"/>
<path opacity="0.4" d="M236.304 127.775C236.803 130.621 237.39 134.786 237.624 139.89C238.035 148.895 238.358 155.319 235.19 161.889C233.958 164.471 231.23 169.047 225.305 173.212C232.022 171.98 238.71 170.777 245.427 169.545C245.75 163.415 245.486 154.85 242.992 145.082C241.144 138.071 238.651 132.234 236.304 127.775Z" fill="#828181"/>
<path d="M149.008 100.468C151.061 103.46 152.909 105.924 154.405 107.802C158.072 112.466 159.48 113.668 161.445 114.079C163.117 114.431 164.701 114.137 165.639 113.932C168.25 113.404 169.306 112.348 171.037 111.527C173.325 110.471 174.234 110.999 181.655 111.087C187.023 111.146 186.436 110.852 191.247 110.94C195.471 111.028 198.961 111.292 201.425 111.527C200.721 110.97 200.017 110.442 199.343 109.884C198.375 109.62 195.559 108.74 193.359 105.983C191.54 103.695 191.1 101.348 190.954 100.292C191.57 100.116 192.655 99.6764 193.359 98.6498C194.826 96.4792 193.3 93.5166 192.772 92.5193C192.127 91.2873 190.954 89.058 189.34 89.234C188.138 89.3513 186.994 90.7593 186.642 92.6659C183.884 93.5459 179.719 94.3672 175.407 92.9592C167.282 90.29 165.61 81.8421 161.181 81.7248C158.306 81.6955 154.229 85.0394 149.008 100.468Z" fill="white"/>
<path d="M148.216 99.1183C150.534 104.428 154.053 109.121 158.483 112.846C158.923 113.198 159.539 112.582 159.099 112.23C154.699 108.534 151.267 103.929 148.95 98.6783C148.744 98.1797 147.982 98.6197 148.216 99.1183Z" fill="#161616"/>
<path d="M162.296 105.453C162.56 106.949 162.883 108.416 163.264 109.883C163.616 111.144 163.88 112.669 164.526 113.813C165.435 115.426 168.339 113.432 169.277 112.699C169.717 112.347 169.101 111.731 168.661 112.083C168.016 112.581 166.725 113.579 165.845 113.461C164.878 113.344 164.643 111.437 164.408 110.704C163.88 108.915 163.47 107.096 163.147 105.248C163.03 104.661 162.179 104.896 162.296 105.453Z" fill="#161616"/>
<path d="M158.279 105.629C157.164 104.69 155.727 103.487 156.255 101.845C156.02 101.903 155.756 101.962 155.522 102.05C156.666 103.165 157.546 104.485 158.103 105.981C158.191 105.805 158.308 105.629 158.396 105.453C158.22 105.306 158.015 105.159 157.839 105.042C157.692 104.485 156.842 104.719 156.988 105.277C157.194 106.069 157.839 106.421 158.631 106.303C158.866 106.274 159.012 105.951 158.924 105.775C158.308 104.133 157.37 102.695 156.108 101.463C155.874 101.229 155.463 101.346 155.375 101.669C154.759 103.634 156.226 105.159 157.634 106.303C158.074 106.596 158.719 105.981 158.279 105.629Z" fill="#161616"/>
<path d="M155.523 102.374C156.227 103.46 156.931 104.545 157.635 105.63C157.928 106.099 158.691 105.659 158.398 105.19C157.694 104.105 156.99 103.02 156.286 101.934C155.992 101.436 155.23 101.876 155.523 102.374Z" fill="#161616"/>
<path d="M168.78 101.139C168.252 100.523 167.695 99.8193 167.431 99.0273C167.343 98.7926 167.313 98.5286 167.313 98.294C167.372 97.9127 167.46 97.8833 167.636 98.1766C167.929 98.294 168.193 98.8513 168.369 99.1153C168.78 99.7313 169.161 100.406 169.367 101.081C169.484 101.462 169.631 101.521 169.22 101.345C168.839 101.169 168.487 100.758 168.223 100.465C167.841 100.025 167.225 100.67 167.607 101.081C168.076 101.609 169.601 103.163 170.217 101.961C170.774 100.875 169.396 98.9686 168.78 98.1766C168.252 97.502 166.991 96.1527 166.492 97.6487C165.993 99.1446 167.255 100.699 168.135 101.726C168.516 102.195 169.132 101.579 168.78 101.139Z" fill="#161616"/>
<path d="M166.841 98.3242C167.516 99.4095 168.191 100.495 168.865 101.58C169.159 102.049 169.921 101.609 169.628 101.14C169.012 100.143 168.484 99.1455 167.985 98.0896C167.751 98.2656 167.516 98.4416 167.281 98.6176C167.956 99.2629 168.455 100.026 168.777 100.906C168.983 101.434 169.833 101.199 169.628 100.671C169.247 99.6442 168.689 98.7642 167.897 98.0016C167.516 97.6496 166.988 98.0896 167.193 98.5296C167.692 99.5855 168.22 100.612 168.836 101.58C169.1 101.434 169.335 101.287 169.599 101.14C168.924 100.055 168.249 98.9696 167.575 97.8842C167.311 97.4149 166.548 97.8549 166.841 98.3242Z" fill="#161616"/>
<path d="M190.338 102.988C191.248 105.394 191.16 107.916 189.986 110.204C189.722 110.703 190.485 111.143 190.749 110.644C192.01 108.151 192.186 105.364 191.189 102.754C190.984 102.255 190.133 102.46 190.338 102.988Z" fill="#161616"/>
<path d="M144.697 81.5171C144.228 82.1624 139.974 88.117 142.233 95.5968C144.462 102.989 151.121 105.629 151.883 105.922C151.561 104.103 151.033 99.6154 153.203 94.6288C155.785 88.6156 160.537 85.7997 162.062 84.9784C163.03 86.3863 166.697 91.3729 173.678 93.3382C179.926 95.0688 185.088 93.3382 186.789 92.6929C187.112 92.1649 188.344 90.3462 189.899 90.4049C192.128 90.4929 194.328 94.5408 193.008 97.2981C192.187 99.0287 190.251 99.6154 189.723 99.7621C190.045 101.023 190.72 102.93 192.187 104.837C194.651 108.093 197.877 109.354 199.725 110.087C201.544 110.791 216.416 116.452 225.274 107.125C230.055 102.109 232.343 93.5142 229.205 87.6183C226.653 82.8664 222.165 82.8371 210.05 77.4692C195.531 71.016 197.525 69.0507 188.931 66.3227C184.443 64.8854 167.929 59.6349 155.022 68.6107C149.126 72.6879 146.134 78.2025 144.697 81.5171Z" fill="#EC615B"/>
<path d="M138.305 131.324C138.187 129.622 138.129 124.724 141.326 120.236C146.225 113.372 154.672 113.225 156.11 113.196C158.662 113.137 162.035 113.577 169.837 117.86C174.912 120.647 181.864 125.017 189.285 131.852C191.162 131.969 194.272 132.38 197.469 134.228C200.871 136.164 207.178 141.267 205.829 146.753C205.066 149.862 201.927 152.883 198.935 152.737C194.125 152.502 191.016 144.23 190.018 144.729C189.226 145.11 191.632 150.038 190.576 150.713C189.608 151.329 185.794 148.366 184.034 144.347C182.597 141.121 182.832 138.07 183.125 136.34C176.085 133.025 164.47 128.86 150.096 129.593C145.697 129.857 141.766 130.502 138.305 131.324Z" fill="white" stroke="#161616" stroke-width="3"/>
<path opacity="0.34" d="M138.363 130.737C139.419 125.046 141.913 122.436 143.35 121.292C152.355 114.017 169.427 122.788 174.501 125.369C180.485 128.42 184.973 132.145 187.144 134.052C191.485 137.894 190.4 138.129 196.325 143.761C200.402 147.633 203.306 149.833 202.719 151.417C202.221 152.707 199.757 152.824 199.522 152.824C193.802 153.03 189.872 144.171 189.696 143.761C191.104 148.894 190.84 150.449 190.194 150.771C188.962 151.417 185.325 148.014 183.8 143.995C182.597 140.827 182.949 137.865 183.301 136.193C178.93 134.228 173.387 132.262 166.845 130.972C155.083 128.684 145.051 129.564 138.363 130.737Z" fill="#828181"/>
<path d="M114.19 133.729C113.252 138.744 112.078 149.334 116.86 160.891C125.835 182.626 148.099 189.021 151.091 189.813C151.179 193.245 151.296 196.706 151.384 200.138C145.928 202.719 137.862 207.236 129.825 214.892C123.87 220.583 113.486 230.732 109.468 247.364C107.004 257.542 107.737 266.723 109.174 273.646C144.608 274.232 180.013 274.819 215.447 275.406C216.591 268.718 217.852 255.401 212.191 240.588C202.071 214.1 177.872 203.804 173.237 201.927C173.149 197.293 173.032 192.687 172.944 188.053C177.49 187.055 188.021 184.122 196.85 174.765C211.575 159.189 209.346 138.803 208.964 135.811C177.344 135.107 145.752 134.433 114.19 133.729Z" fill="white" stroke="#161616" stroke-width="3"/>
<path d="M119.851 166.315C122.755 167.899 125.865 169.102 129.179 169.571C131.584 169.894 133.872 169.689 136.278 169.425C139.328 169.073 142.35 168.809 145.371 168.281C148.451 167.753 151.384 166.843 154.435 166.169C155.256 165.993 156.019 165.905 156.84 166.081C158.453 166.403 159.392 167.401 160.624 168.339C162.325 169.63 164.525 169.542 166.285 168.486C167.224 167.899 168.074 167.166 169.013 166.609C170.392 165.787 171.917 165.377 173.53 165.259C175.261 165.142 177.021 165.259 178.722 165.582C180.746 165.963 182.535 166.785 184.471 167.401C188.285 168.633 189.458 164.555 192.421 163.177C195.97 161.505 200.868 161.681 204.594 162.473C205.151 162.59 205.386 161.739 204.828 161.622C201.602 160.918 198.434 160.947 195.178 161.505C193.799 161.739 192.479 162.062 191.277 162.795C189.898 163.646 189.106 164.937 187.933 165.993C186.231 167.518 184.266 166.345 182.477 165.67C180.863 165.083 179.162 164.702 177.431 164.497C174.557 164.145 171.506 164.262 168.896 165.67C166.754 166.843 164.906 169.19 162.208 168.193C161.034 167.753 160.301 166.667 159.245 166.051C158.395 165.523 157.368 165.201 156.371 165.113C154.464 164.966 152.499 165.787 150.651 166.257C147.16 167.137 143.581 167.723 139.974 168.105C137.158 168.398 134.254 168.926 131.408 168.838C127.478 168.721 123.723 167.401 120.321 165.523C119.793 165.259 119.353 166.022 119.851 166.315Z" fill="#161616"/>
<path d="M151.534 196.618C152.003 197.733 152.472 198.906 153.264 199.845C153.763 200.461 154.526 200.93 154.848 201.722C155.171 202.543 155.171 203.629 155.288 204.509C155.67 207.53 156.08 210.551 157.342 213.367C157.576 213.895 158.339 213.426 158.104 212.927C156.726 209.906 156.462 206.621 156.022 203.365C155.875 202.309 155.816 201.223 155.054 200.402C153.88 199.111 153.088 198.056 152.384 196.384C152.179 195.856 151.328 196.09 151.534 196.618Z" fill="#161616"/>
<path d="M170.716 199.169C169.426 198.172 168.429 200.02 167.959 201.017C167.49 201.956 167.138 202.924 166.903 203.921C166.639 205.065 166.698 206.385 166.17 207.441C165.671 208.527 164.85 209.436 164.381 210.55C163.941 211.548 163.618 212.604 163.325 213.66C162.65 216.3 162.269 219.028 161.799 221.697C161.711 222.254 162.562 222.489 162.65 221.932C163.354 217.913 163.706 213.425 165.73 209.817C166.199 208.996 166.815 208.292 167.138 207.412C167.373 206.796 167.402 206.151 167.49 205.535C167.578 204.889 169.221 199.111 170.101 199.785C170.511 200.137 171.156 199.521 170.716 199.169Z" fill="#161616"/>
<path d="M161.298 233.724C161.034 233.254 160.77 232.697 160.888 232.169C161.064 231.348 161.973 231.23 162.266 232.022C162.618 232.961 162.061 234.046 161.416 234.662C161.592 234.633 161.768 234.604 161.944 234.604C161.592 234.34 161.24 234.076 160.917 233.841C160.448 233.489 160.037 234.281 160.477 234.604C160.829 234.868 161.181 235.132 161.504 235.366C161.65 235.484 161.914 235.425 162.032 235.308C163.088 234.281 164.056 231.524 162.208 230.702C161.474 230.38 160.653 230.761 160.242 231.436C159.714 232.316 160.066 233.372 160.536 234.193C160.8 234.662 161.562 234.222 161.298 233.724Z" fill="#161616"/>
<path d="M158.982 243.814C158.777 243.404 158.454 242.846 158.542 242.348C158.601 242.054 158.982 241.644 159.276 241.908C159.569 242.142 159.598 242.846 159.51 243.169C159.422 243.462 158.924 243.961 158.66 243.58C158.337 243.14 157.574 243.58 157.897 244.02C158.366 244.694 159.334 244.753 159.95 244.166C160.625 243.521 160.566 242.23 160.068 241.497C159.569 240.764 158.601 240.881 158.073 241.497C157.31 242.318 157.78 243.462 158.22 244.313C158.484 244.753 159.246 244.313 158.982 243.814Z" fill="#161616"/>
<path d="M163.234 247.302C162.852 247.009 163.234 246.041 163.762 246.334C163.996 246.452 164.143 246.804 164.084 247.068C163.996 247.449 163.498 247.39 163.292 247.185C162.882 246.774 162.266 247.42 162.676 247.801C163.292 248.388 164.436 248.388 164.847 247.566C165.17 246.892 164.876 246.041 164.29 245.63C163.644 245.19 162.823 245.454 162.442 246.129C162.06 246.804 162.178 247.625 162.823 248.065C163.234 248.388 163.674 247.625 163.234 247.302Z" fill="#161616"/>
<path d="M134.4 274.143C136.834 272.178 139.269 270.213 141.703 268.247C142.877 267.309 143.991 266.311 145.253 265.49C146.514 264.669 147.893 264.288 149.301 263.76C153.7 262.058 157.572 254.754 162.618 259.33C164.26 260.797 165.61 262.088 167.751 262.792C170.185 263.584 172.591 264.053 174.908 265.197C179.367 267.397 183.004 270.946 185.439 275.258C185.703 275.757 186.465 275.317 186.201 274.818C184.324 271.445 181.743 268.57 178.575 266.341C177.049 265.256 175.377 264.346 173.647 263.642C171.652 262.821 169.569 262.498 167.546 261.765C163.908 260.445 162.031 255.81 157.602 257.16C155.812 257.717 154.375 258.92 152.996 260.152C152.175 260.885 151.354 261.618 150.415 262.205C149.213 262.968 147.834 263.232 146.543 263.789C144.49 264.669 142.789 266.223 141.058 267.602C138.623 269.567 136.189 271.533 133.754 273.498C133.344 273.879 133.96 274.495 134.4 274.143Z" fill="#161616"/>
<path d="M172.417 194.651C172.094 197.027 171.742 199.373 171.419 201.749C171.126 203.891 171.097 206.413 170.129 208.408C170.334 208.349 170.539 208.291 170.745 208.261C169.923 207.704 170.481 204.947 170.481 204.125C170.51 202.688 170.539 201.28 170.569 199.843C170.569 199.285 169.689 199.285 169.689 199.843C169.63 201.925 169.601 204.008 169.542 206.12C169.513 207.176 169.307 208.349 170.275 209.024C170.451 209.141 170.774 209.083 170.891 208.877C171.83 206.941 171.918 204.683 172.211 202.571C172.563 200.019 172.945 197.467 173.297 194.915C173.326 194.328 172.475 194.093 172.417 194.651Z" fill="#161616"/>
<path d="M151.12 190.928C150.651 193.421 151.003 195.827 152.118 198.085C152.382 198.584 153.115 198.144 152.88 197.645C151.883 195.592 151.56 193.392 151.971 191.163C152.059 190.605 151.208 190.371 151.12 190.928Z" fill="#161616"/>
<path d="M134.988 178.49C140.326 182.391 146.926 183.887 152.499 187.319C152.969 187.612 153.438 186.85 152.939 186.557C147.337 183.125 140.737 181.629 135.428 177.727C134.958 177.375 134.518 178.138 134.988 178.49Z" fill="#161616"/>
<path d="M152.089 183.036C154.728 184.649 156.576 187.113 157.368 190.134C157.515 190.692 158.366 190.457 158.219 189.9C157.398 186.673 155.403 184.004 152.558 182.273C152.059 181.98 151.619 182.742 152.089 183.036Z" fill="#161616"/>
<path d="M167.312 194.123C168.72 190.251 170.568 186.349 174 183.886C174.469 183.563 174.029 182.8 173.56 183.123C169.923 185.763 167.957 189.752 166.461 193.888C166.285 194.445 167.136 194.651 167.312 194.123Z" fill="#161616"/>
<path d="M140.855 272.089C143.847 268.803 147.69 266.545 152.002 265.489C152.559 265.371 152.324 264.521 151.767 264.638C147.308 265.694 143.319 268.07 140.239 271.443C139.858 271.913 140.474 272.529 140.855 272.089Z" fill="#161616"/>
<path d="M147.603 269.332C149.715 268.393 151.827 267.455 153.939 266.516C154.467 266.281 153.997 265.519 153.499 265.753C151.387 266.692 149.275 267.631 147.163 268.569C146.664 268.804 147.104 269.567 147.603 269.332Z" fill="#161616"/>
<path d="M165.112 258.39C167.693 260.766 171.859 259.945 174.234 262.526C174.616 262.937 175.232 262.321 174.85 261.91C172.416 259.27 168.309 260.121 165.728 257.774C165.317 257.364 164.701 258.009 165.112 258.39Z" fill="#161616"/>
<path d="M109.204 276.753C136.924 276.753 164.643 276.753 192.392 276.753C200.194 276.753 208.026 276.753 215.829 276.753C219.231 276.753 219.231 271.473 215.829 271.473C188.109 271.473 160.39 271.473 132.641 271.473C124.839 271.473 117.007 271.473 109.204 271.473C105.802 271.473 105.802 276.753 109.204 276.753Z" fill="#161616"/>
<path d="M113.37 135.547C138.362 135.547 163.353 135.547 188.345 135.547C195.385 135.547 202.395 135.547 209.435 135.547C212.838 135.547 212.838 130.268 209.435 130.268C184.444 130.268 159.452 130.268 134.461 130.268C127.421 130.268 120.41 130.268 113.37 130.268C109.968 130.268 109.968 135.547 113.37 135.547Z" fill="#161616"/>
<path d="M106.212 130.268C104.159 130.268 102.105 130.268 100.052 130.268C96.6494 130.268 96.6494 135.547 100.052 135.547C102.105 135.547 104.159 135.547 106.212 135.547C109.614 135.547 109.614 130.268 106.212 130.268Z" fill="#161616"/>
<path d="M88.5246 134.96C89.3166 134.96 90.1086 134.96 90.9006 134.96C92.2792 134.96 93.5992 133.757 93.5405 132.32C93.4819 130.882 92.3672 129.68 90.9006 129.68C90.1086 129.68 89.3166 129.68 88.5246 129.68C87.146 129.68 85.826 130.882 85.8847 132.32C85.9434 133.728 87.0287 134.96 88.5246 134.96Z" fill="#161616"/>
<path d="M221.958 276.372C226.123 276.372 230.318 276.372 234.483 276.372C237.886 276.372 237.886 271.092 234.483 271.092C230.318 271.092 226.123 271.092 221.958 271.092C218.556 271.092 218.556 276.372 221.958 276.372Z" fill="#161616"/>
<path d="M243.46 276.96C244.194 276.96 244.927 276.96 245.66 276.96C247.039 276.96 248.359 275.757 248.3 274.32C248.241 272.882 247.127 271.68 245.66 271.68C244.927 271.68 244.194 271.68 243.46 271.68C242.082 271.68 240.762 272.882 240.82 274.32C240.879 275.757 241.964 276.96 243.46 276.96Z" fill="#161616"/>
<path d="M151.091 190.016C150.885 192.04 150.709 194.093 151.12 196.088C151.56 198.2 152.88 199.695 153.848 201.573C154.963 203.685 155.285 206.237 155.813 208.525C156.37 210.959 156.928 213.394 157.485 215.828C157.749 216.943 159.421 216.474 159.186 215.359C158.658 213.013 158.101 210.666 157.573 208.319C157.074 206.149 156.722 203.861 155.901 201.807C155.168 199.959 153.672 198.464 153.056 196.557C152.381 194.445 152.645 192.157 152.851 190.016C152.968 188.901 151.208 188.901 151.091 190.016Z" fill="#161616"/>
<path d="M147.102 189.136C148.715 189.899 150.358 190.133 152.118 189.84C153.233 189.664 152.763 187.963 151.649 188.139C150.387 188.344 149.126 188.168 147.982 187.611C146.956 187.112 146.076 188.637 147.102 189.136Z" fill="#161616"/>
<path d="M168.836 199.254C167.428 200.252 166.724 201.689 166.401 203.332C166.167 204.446 166.108 205.59 165.785 206.705C165.463 207.82 164.935 208.846 164.407 209.902C162.442 213.862 160.476 218.057 161.034 222.574C161.18 223.689 162.94 223.689 162.794 222.574C162.266 218.321 164.084 214.478 165.932 210.782C166.724 209.198 167.457 207.644 167.751 205.913C168.073 204.124 168.103 201.924 169.716 200.78C170.655 200.105 169.775 198.58 168.836 199.254Z" fill="#161616"/>
<path d="M151.707 238.563C152.851 238.563 152.851 236.803 151.707 236.803C150.592 236.803 150.592 238.563 151.707 238.563Z" fill="#161616"/>
<path d="M148.54 253.082C149.684 253.082 149.684 251.322 148.54 251.322C147.396 251.322 147.396 253.082 148.54 253.082Z" fill="#161616"/>
<path d="M157.603 219.437C157.691 220.024 157.779 220.64 157.867 221.227C157.925 221.696 158.541 221.96 158.952 221.843C159.451 221.696 159.627 221.227 159.568 220.757C159.48 220.171 159.392 219.555 159.304 218.968C159.245 218.499 158.629 218.235 158.219 218.352C157.72 218.499 157.544 218.968 157.603 219.437Z" fill="#161616"/>
<path d="M162.178 226.948C162.178 227.006 162.178 227.094 162.178 227.153C162.178 227.622 162.588 228.062 163.058 228.033C163.527 228.004 163.938 227.652 163.938 227.153C163.938 227.094 163.938 227.006 163.938 226.948C163.938 226.478 163.527 226.038 163.058 226.068C162.588 226.097 162.178 226.449 162.178 226.948Z" fill="#161616"/>
<path d="M186.379 167.959C189.195 166.903 191.424 164.849 194.123 163.588C197.437 162.063 200.928 163.911 204.213 162.65C205.269 162.239 204.8 160.538 203.744 160.948C201.954 161.623 200.136 161.242 198.258 161.124C196.704 161.007 195.237 161.212 193.8 161.799C190.984 162.943 188.725 165.172 185.88 166.257C184.883 166.668 185.323 168.369 186.379 167.959Z" fill="#161616"/>
<path d="M191.746 219.906C189.076 221.05 191.335 223.866 192.567 225.098C195.09 227.62 197.348 230.407 199.314 233.369C203.156 239.148 205.825 245.63 207.263 252.406C207.38 252.964 208.231 252.729 208.113 252.172C206.881 246.422 204.77 240.879 201.836 235.775C200.428 233.311 198.815 230.964 197.026 228.764C196.116 227.649 195.178 226.564 194.18 225.508C193.3 224.599 189.78 221.695 192.186 220.668C192.714 220.434 192.244 219.671 191.746 219.906Z" fill="#161616"/>
<path d="M195.003 222.166C203.891 229.558 207.499 240.851 210.755 251.528C210.931 252.056 211.781 251.851 211.605 251.294C208.291 240.47 204.624 229.03 195.619 221.521C195.179 221.169 194.563 221.785 195.003 222.166Z" fill="#161616"/>
<path d="M207.644 255.342C208.202 256.134 208.876 257.072 209.932 257.16C210.754 257.219 211.634 256.75 211.751 255.87C211.839 255.312 210.988 255.078 210.9 255.635C210.812 256.192 210.226 256.398 209.727 256.222C209.14 256.016 208.73 255.4 208.407 254.902C208.084 254.432 207.322 254.872 207.644 255.342Z" fill="#161616"/>
<path d="M209.375 267.719C210.695 268.305 212.338 267.895 213.042 266.575C213.717 265.313 213.189 263.583 211.957 262.879C210.695 262.175 208.965 262.673 208.231 263.905C207.498 265.196 208.026 266.839 209.199 267.631C209.669 267.953 210.109 267.191 209.639 266.868C208.847 266.34 208.495 265.196 208.994 264.345C209.463 263.524 210.666 263.172 211.517 263.641C212.367 264.081 212.719 265.284 212.279 266.135C211.839 267.015 210.666 267.337 209.815 266.956C209.317 266.721 208.847 267.484 209.375 267.719Z" fill="#161616"/>
<path d="M119.528 140.035C119.821 153.616 125.483 166.787 135.162 176.29C135.573 176.701 136.189 176.056 135.778 175.674C126.245 166.317 120.672 153.382 120.408 140.035C120.379 139.478 119.499 139.478 119.528 140.035Z" fill="#161616"/>
<path d="M120.47 139.652C119.708 138.89 118.622 138.919 117.801 139.594C116.716 140.503 116.833 142.146 116.95 143.436C117.244 147.279 118.006 151.063 119.15 154.729C121.438 162.004 125.281 168.75 130.355 174.412C130.737 174.822 131.353 174.206 130.971 173.796C126.835 169.19 123.55 163.911 121.291 158.161C120.206 155.463 119.385 152.647 118.769 149.801C118.446 148.247 118.182 146.692 118.006 145.138C117.918 144.404 117.83 143.7 117.801 142.967C117.772 142.644 117.742 142.322 117.772 142.028C117.801 141.324 118.564 138.978 119.854 140.298C120.265 140.679 120.881 140.034 120.47 139.652Z" fill="#161616"/>
<path opacity="0.25" d="M209.581 136.016C209.61 136.955 184.326 138.48 133.756 140.651C132.876 144.64 132.289 150.096 133.756 156.138C138.449 175.645 159.627 183.154 161.739 183.858C162.003 191.367 162.297 198.905 162.561 206.415C160.302 207.265 157.339 208.556 154.083 210.521C152.001 211.783 147.044 215.009 142.438 220.26C139.828 223.252 131.439 232.873 130.764 247.451C130.353 256.104 132.847 263.085 134.841 267.28C158.659 268.629 182.507 270.008 206.325 271.357C173.883 271.621 141.47 271.915 109.028 272.179C108.002 265.637 107.034 253.112 112.284 239.033C113.252 236.481 121.289 215.889 142.732 204.244C146.134 202.396 149.097 201.193 151.15 200.431C151.062 196.793 150.974 193.186 150.886 189.548C147.924 188.786 143.524 187.378 138.654 184.65C135.809 183.066 116.919 172.095 113.37 150.682C112.812 147.28 112.343 141.912 113.634 135.195C177.579 134.696 209.552 134.96 209.581 136.016Z" fill="#474747"/>
<path opacity="0.3" d="M166.93 135.283C151.707 137.424 136.483 139.566 121.259 141.678C121.67 146.752 123.254 157.224 130.44 167.843C139.328 180.954 151.384 186.352 156.048 188.17C156.312 193.743 156.605 199.317 156.869 204.89C146.925 206.826 140.384 210.874 136.806 213.514C134.43 215.274 112.958 230.996 115.363 253.612C115.774 257.513 117.182 264.201 122.579 271.593C117.945 271.651 113.339 271.71 108.705 271.739C107.766 264.553 106.915 249.74 114.601 234.457C120.467 222.841 128.856 215.714 133.726 211.666C140.267 206.239 146.515 202.719 151.091 200.519C151.237 196.911 151.413 193.303 151.56 189.695C145.723 188.463 134.078 185.09 125.102 174.706C124.456 173.973 122.227 171.333 119.998 167.373C113.486 155.816 113.046 143.731 113.662 135.841C131.467 135.635 149.213 135.459 166.93 135.283Z" fill="#474747"/>
<path d="M150.421 122.698C141.24 129.386 134.171 137.629 134.845 138.45C135.168 138.861 136.957 138.333 143.587 134.08C142.443 134.754 139.744 136.485 138.336 139.858C137.925 140.855 136.576 143.642 137.808 145.461C139.128 147.367 142.619 147.191 144.877 146.429C149.248 144.962 151.33 140.415 151.565 140.591C151.917 140.826 147.048 147.778 147.752 148.335C148.485 148.951 156.112 142.469 161.949 133.376C163.738 130.589 164.97 128.154 165.791 126.365C170.983 126.482 177.407 126.922 184.682 128.125C197.823 130.266 202.839 133.082 211.785 131.616C217.27 130.736 226.158 127.92 226.481 123.754C226.892 118.592 214.044 113.84 211.257 112.813C190.079 104.981 170.221 112.227 166.994 113.459C158.957 116.539 153.413 120.528 150.421 122.698Z" fill="white" stroke="#161616" stroke-width="3"/>
<path d="M137.074 144.991C137.221 145.284 137.309 145.343 137.573 145.519C137.72 145.636 137.984 145.577 138.101 145.46C141.005 141.999 143.527 137.98 147.663 135.839C148.162 135.575 147.722 134.812 147.223 135.076C142.999 137.247 140.448 141.295 137.485 144.844C137.661 144.815 137.837 144.785 138.013 144.785C137.954 144.697 137.896 144.639 137.837 144.551C137.573 144.052 136.81 144.492 137.074 144.991Z" fill="#161616"/>
<path d="M139.832 147.251C141.622 147.662 143.264 145.227 144.32 144.083C146.051 142.206 147.694 140.328 149.952 139.038C150.451 138.744 150.011 138.011 149.512 138.275C147.811 139.243 146.432 140.534 145.112 141.942C144.438 142.675 143.792 143.408 143.088 144.142C142.443 144.846 141.094 146.635 140.067 146.4C139.51 146.283 139.275 147.134 139.832 147.251Z" fill="#161616"/>
<path opacity="0.33" d="M137.192 141.734C144.232 136.777 145.933 135.633 145.962 135.691C146.021 135.75 143.205 137.451 140.77 140.707C139.538 142.379 138.746 143.963 138.248 145.137C138.336 145.313 138.6 145.782 139.128 146.075C139.802 146.457 140.418 146.369 140.624 146.339C140.8 146.251 141.064 146.105 141.357 145.899C142.384 145.225 143 144.433 143.234 144.169C143.352 144.022 145.2 141.705 146.05 140.795C146.813 139.974 148.104 138.918 150.216 138.155C148.485 140.795 146.725 143.465 144.994 146.105C146.784 145.225 147.957 144.227 148.69 143.465C149.424 142.731 149.658 142.291 150.978 140.649C152.21 139.123 153.12 138.155 153.472 137.745C156.551 134.225 161.157 125.836 164.09 123.02C170.367 116.948 180.487 121.905 200.463 122.052C210.553 122.14 218.913 120.878 224.662 119.734C225.161 120.086 226.099 120.878 226.451 122.169C226.451 122.169 226.891 123.782 225.777 125.806C224.545 128.094 218.385 132.201 205.273 131.849C194.567 131.555 191.311 128.622 176.967 127.009C172.156 126.481 168.197 126.334 165.674 126.276C163.298 131.907 160.57 136.043 158.429 138.83C153.706 145.019 148.368 149.331 147.576 148.744C147.517 148.715 147.37 148.568 147.282 148.304C147.077 147.718 147.517 147.043 147.752 146.691C148.192 145.987 148.749 145.049 149.453 143.699C148.984 144.286 148.221 145.078 147.106 145.753C144.085 147.6 139.157 148.187 137.485 145.782C137.251 145.489 136.488 144.257 137.192 141.734Z" fill="#828181"/>
<path opacity="0.51" d="M169.781 126.247C169.811 125.983 176.528 126.159 183.949 126.541C203.221 127.538 208.266 128.946 215.716 126.247C220.41 124.546 223.754 122.053 225.572 120.527C226.13 121.613 226.716 123.226 226.276 124.839C225.191 128.77 218.884 130.06 214.807 130.882C212.548 131.351 208.706 131.908 202.634 131.38C197.237 130.94 195.095 130.06 189.376 128.858C177.936 126.482 169.752 126.511 169.781 126.247Z" fill="#828181"/>
</svg>
